<svg width="24" height="24" viewBox="0 0 24 24" fill="none" xmlns="http://www.w3.org/2000/svg">
<rect x="4" y="4" width="16" height="16" rx="8" fill="#03051E" fill-opacity="0.06"/>
<path d="M9.76933 9.132C9.59334 8.956 9.30799 8.956 9.132 9.132C8.956 9.30799 8.956 9.59334 9.132 9.76933L11.3627 12L9.132 14.2307C8.956 14.4067 8.956 14.692 9.132 14.868C9.30799 15.044 9.59334 15.044 9.76933 14.868L12 12.6373L14.2307 14.868C14.4067 15.044 14.692 15.044 14.868 14.868C15.044 14.692 15.044 14.4067 14.868 14.2307L12.6373 12L14.868 9.76933C15.044 9.59334 15.044 9.30799 14.868 9.132C14.692 8.956 14.4067 8.956 14.2307 9.132L12 11.3627L9.76933 9.132Z" fill="#1F1F1F"/>
</svg>
