<svg width="24" height="24" viewBox="0 0 24 24" fill="none" xmlns="http://www.w3.org/2000/svg">
<line x1="19.25" y1="22.75" x2="4.75" y2="22.75" stroke="#1F1F1F" stroke-width="1.5" stroke-linecap="round"/>
<path d="M12.75 2C12.75 1.58579 12.4142 1.25 12 1.25C11.5858 1.25 11.25 1.58579 11.25 2L12 2L12.75 2ZM11.4697 18.5303C11.7626 18.8232 12.2374 18.8232 12.5303 18.5303L17.3033 13.7574C17.5962 13.4645 17.5962 12.9896 17.3033 12.6967C17.0104 12.4038 16.5355 12.4038 16.2426 12.6967L12 16.9393L7.75736 12.6967C7.46447 12.4038 6.98959 12.4038 6.6967 12.6967C6.40381 12.9896 6.40381 13.4645 6.6967 13.7574L11.4697 18.5303ZM12 2L11.25 2L11.25 18L12 18L12.75 18L12.75 2L12 2Z" fill="#1F1F1F"/>
</svg>
