<svg width="24" height="24" viewBox="0 0 24 24" fill="none" xmlns="http://www.w3.org/2000/svg">
<path d="M19.9563 14.5862C19.7255 14.3903 19.5077 14.2051 19.3933 14.0058C19.3868 13.9941 19.3797 13.9824 19.3723 13.9706L19.3686 13.9647C18.9641 13.337 18.8172 11.8225 18.7296 10.9177C18.7167 10.7843 18.7042 10.6565 18.6917 10.5361C18.6906 10.5258 18.6894 10.5156 18.6874 10.501C18.4919 9.17533 18.0073 7.26481 16.8084 5.69118C15.9638 4.58283 14.9104 3.84411 13.6748 3.49286C13.6028 2.65807 12.8792 2 12 2C11.1207 2 10.3969 2.65812 10.3252 3.49309C9.08949 3.84405 8.03616 4.58277 7.1916 5.69147C5.99271 7.26476 5.50805 9.17527 5.312 10.5051C5.31062 10.5156 5.3093 10.5258 5.30822 10.5366C5.29574 10.6567 5.28333 10.7843 5.27044 10.9176C5.18275 11.8226 5.03588 13.3373 4.62883 13.9688C4.62253 13.9789 4.61647 13.989 4.60874 14.0022C4.49251 14.2048 4.27456 14.3901 4.04384 14.5863C3.49267 15.0548 2.46663 15.9219 3.3374 17.4897C3.49021 17.765 3.78547 17.9311 4.10795 17.9311H19.8922C20.2143 17.9311 20.5095 17.7651 20.6627 17.4898C21.5332 15.9221 20.5076 15.0549 19.9563 14.5862Z" fill="url(#paint0_linear_11308_8638)"/>
<path d="M13.9934 19.3268H10.0851C9.87029 19.3268 9.74374 19.4123 9.67531 19.4875C9.57527 19.5975 9.53209 19.7475 9.5538 19.9137C9.70908 21.1037 10.7601 21.9999 11.9988 21.9999C13.2511 21.9999 14.3035 21.0909 14.4469 19.8862C14.4563 19.8073 14.4634 19.6117 14.3275 19.4637C14.2439 19.3729 14.1253 19.3268 13.9934 19.3268Z" fill="url(#paint1_linear_11308_8638)"/>
<defs>
<linearGradient id="paint0_linear_11308_8638" x1="12" y1="2" x2="12" y2="21.9999" gradientUnits="userSpaceOnUse">
<stop stop-color="#A6A8AA"/>
<stop offset="0.950107" stop-color="#D2D3D4"/>
</linearGradient>
<linearGradient id="paint1_linear_11308_8638" x1="12" y1="2" x2="12" y2="21.9999" gradientUnits="userSpaceOnUse">
<stop stop-color="#A6A8AA"/>
<stop offset="0.950107" stop-color="#D2D3D4"/>
</linearGradient>
</defs>
</svg>
