<svg width="24" height="24" viewBox="0 0 24 24" fill="none" xmlns="http://www.w3.org/2000/svg">
<path d="M2 14C2 13.4477 2.44772 13 3 13H6.66667C7.21895 13 7.66667 13.4477 7.66667 14V21C7.66667 21.5523 7.21895 22 6.66667 22H3C2.44771 22 2 21.5523 2 21V14Z" fill="url(#paint0_linear_11308_8598)"/>
<path d="M9.16667 3C9.16667 2.44772 9.61438 2 10.1667 2H13.8333C14.3856 2 14.8333 2.44772 14.8333 3V21C14.8333 21.5523 14.3856 22 13.8333 22H10.1667C9.61438 22 9.16667 21.5523 9.16667 21V3Z" fill="url(#paint1_linear_11308_8598)"/>
<path d="M16.3333 8C16.3333 7.44772 16.781 7 17.3333 7H21C21.5523 7 22 7.44772 22 8V21C22 21.5523 21.5523 22 21 22H17.3333C16.781 22 16.3333 21.5523 16.3333 21V8Z" fill="url(#paint2_linear_11308_8598)"/>
<defs>
<linearGradient id="paint0_linear_11308_8598" x1="12" y1="2" x2="12" y2="22" gradientUnits="userSpaceOnUse">
<stop stop-color="#A6A8AA"/>
<stop offset="0.950107" stop-color="#D2D3D4"/>
</linearGradient>
<linearGradient id="paint1_linear_11308_8598" x1="12" y1="2" x2="12" y2="22" gradientUnits="userSpaceOnUse">
<stop stop-color="#A6A8AA"/>
<stop offset="0.950107" stop-color="#D2D3D4"/>
</linearGradient>
<linearGradient id="paint2_linear_11308_8598" x1="12" y1="2" x2="12" y2="22" gradientUnits="userSpaceOnUse">
<stop stop-color="#A6A8AA"/>
<stop offset="0.950107" stop-color="#D2D3D4"/>
</linearGradient>
</defs>
</svg>
