<svg width="24" height="24" viewBox="0 0 24 24" fill="none" xmlns="http://www.w3.org/2000/svg">
<path d="M13.5 5H7.5C5.5 5 4 6.77792 4 8.5V18.5C4 20.5 5.5 22 7.5 22H13.5C15.5 22 17 20.5 17 18.5V8.5C17 6.5 15.5 5 13.5 5Z" fill="url(#paint0_linear_11308_8615)"/>
<path d="M16.5 2H9C7.5 2 6.41324 2.83108 6 3.98339H13.5166C16.5 4 18 5.5 17.9766 8.5V18C19.1522 17.5949 20 16.5 20 15V5.5C20 3.5 18.5 2 16.5 2Z" fill="url(#paint1_linear_11308_8615)"/>
<defs>
<linearGradient id="paint0_linear_11308_8615" x1="12" y1="2" x2="12" y2="22" gradientUnits="userSpaceOnUse">
<stop stop-color="#A6A8AA"/>
<stop offset="0.950107" stop-color="#D2D3D4"/>
</linearGradient>
<linearGradient id="paint1_linear_11308_8615" x1="12" y1="2" x2="12" y2="22" gradientUnits="userSpaceOnUse">
<stop stop-color="#A6A8AA"/>
<stop offset="0.950107" stop-color="#D2D3D4"/>
</linearGradient>
</defs>
</svg>
