<svg width="24" height="24" viewBox="0 0 24 24" fill="none" xmlns="http://www.w3.org/2000/svg">
<path d="M10.8854 13.1053C9.24539 13.1053 4.41858 13.1053 4.41858 13.1053C3.90618 13.1053 3.48691 13.5263 3.48691 14.041V21.0642C3.48691 21.5789 3.90618 21.9999 4.41858 21.9999C4.41858 21.9999 9.34639 21.9999 10.9942 21.9999C11.2133 21.9999 11.2133 21.7634 11.2133 21.7634V13.4233C11.2133 13.4233 11.2133 13.1053 10.8854 13.1053Z" fill="url(#paint0_linear_11308_8668)"/>
<path d="M19.5816 13.1053C19.5816 13.1053 14.7363 13.1053 13.1213 13.1053C12.7278 13.1053 12.7868 13.5169 12.7868 13.5169V21.7711C12.7868 21.7711 12.7836 21.9997 13.0203 21.9997C14.6606 21.9997 19.5814 21.9997 19.5814 21.9997C20.0938 21.9997 20.5131 21.5787 20.5131 21.064V14.041C20.5132 13.5263 20.094 13.1053 19.5816 13.1053Z" fill="url(#paint1_linear_11308_8668)"/>
<path d="M11.2132 7.58082C11.2132 7.58082 11.2132 7.26374 10.9013 7.26374C9.03326 7.26374 3.36648 7.26374 3.36648 7.26374C2.85409 7.26374 2.43481 7.68485 2.43481 8.19943V11.1203C2.43481 11.635 2.85409 12.056 3.36648 12.056C3.36648 12.056 9.05865 12.056 10.9268 12.056C11.2132 12.056 11.2132 11.8065 11.2132 11.8065V7.58082Z" fill="url(#paint2_linear_11308_8668)"/>
<path d="M20.6336 7.2639C20.6336 7.2639 14.9645 7.2639 13.0748 7.2639C12.7869 7.2639 12.7869 7.53939 12.7869 7.53939V11.8124C12.7869 11.8124 12.7869 12.0562 13.1369 12.0562C15.011 12.0562 20.6336 12.0562 20.6336 12.0562C21.146 12.0562 21.5653 11.6351 21.5653 11.1205V8.19958C21.5653 7.685 21.146 7.2639 20.6336 7.2639Z" fill="url(#paint3_linear_11308_8668)"/>
<path d="M8.04444 6.57036C7.61817 6.57036 7.22884 6.53641 6.88742 6.4694C6.02023 6.29924 5.42421 5.96805 5.06528 5.45702C4.74368 4.99903 4.64526 4.43441 4.77267 3.77879C4.99584 2.6317 5.76285 2 6.93222 2C7.17969 2 7.45147 2.0287 7.74008 2.08535C8.47423 2.2294 9.41323 2.65222 10.252 3.21635C11.675 4.17358 11.7454 4.76867 11.6745 5.13306C11.5703 5.66849 11.0721 6.05109 10.1512 6.30278C9.52902 6.47281 8.76114 6.57036 8.04444 6.57036ZM6.93228 3.49975C6.47941 3.49975 6.32377 3.62683 6.23832 4.06634C6.16841 4.42569 6.25658 4.5512 6.28549 4.59244C6.40658 4.76492 6.722 4.90877 7.17372 4.99732C7.41746 5.04518 7.71863 5.07048 8.04437 5.07048C8.76067 5.07048 9.39171 4.96147 9.81044 4.84223C9.84092 4.83357 9.88823 4.79737 9.83752 4.76703C9.2901 4.31913 8.28859 3.72104 7.45378 3.55722C7.25931 3.51918 7.08378 3.49975 6.93228 3.49975Z" fill="url(#paint4_linear_11308_8668)"/>
<path d="M15.9772 6.5703C15.2605 6.5703 14.4925 6.47274 13.8704 6.30271C12.9494 6.05109 12.4512 5.66843 12.347 5.13306C12.2762 4.76867 12.3465 4.17358 13.7697 3.21636C14.6083 2.65222 15.5473 2.2294 16.2816 2.08535C16.5702 2.0287 16.8419 2 17.0892 2C18.2589 2 19.0258 2.63177 19.2488 3.77886C19.3763 4.43441 19.278 4.99903 18.9563 5.45702C18.5974 5.96812 18.0014 6.29924 17.134 6.4694C16.7927 6.53628 16.4034 6.5703 15.9772 6.5703ZM14.196 4.75769C14.1475 4.78599 14.1709 4.83064 14.1961 4.83793C14.6147 4.95881 15.2523 5.07048 15.9771 5.07048C16.3029 5.07048 16.604 5.04518 16.8478 4.99732C17.2994 4.9087 17.615 4.76492 17.736 4.59244C17.7651 4.5512 17.8533 4.42569 17.7832 4.06634C17.6978 3.62683 17.5421 3.49975 17.0891 3.49975C16.9377 3.49975 16.7623 3.51911 16.5677 3.55729C15.7328 3.72104 14.7434 4.30972 14.196 4.75769Z" fill="url(#paint5_linear_11308_8668)"/>
<defs>
<linearGradient id="paint0_linear_11308_8668" x1="12" y1="2" x2="12" y2="21.9999" gradientUnits="userSpaceOnUse">
<stop stop-color="#A6A8AA"/>
<stop offset="0.950107" stop-color="#D2D3D4"/>
</linearGradient>
<linearGradient id="paint1_linear_11308_8668" x1="12" y1="2" x2="12" y2="21.9999" gradientUnits="userSpaceOnUse">
<stop stop-color="#A6A8AA"/>
<stop offset="0.950107" stop-color="#D2D3D4"/>
</linearGradient>
<linearGradient id="paint2_linear_11308_8668" x1="12" y1="2" x2="12" y2="21.9999" gradientUnits="userSpaceOnUse">
<stop stop-color="#A6A8AA"/>
<stop offset="0.950107" stop-color="#D2D3D4"/>
</linearGradient>
<linearGradient id="paint3_linear_11308_8668" x1="12" y1="2" x2="12" y2="21.9999" gradientUnits="userSpaceOnUse">
<stop stop-color="#A6A8AA"/>
<stop offset="0.950107" stop-color="#D2D3D4"/>
</linearGradient>
<linearGradient id="paint4_linear_11308_8668" x1="12" y1="2" x2="12" y2="21.9999" gradientUnits="userSpaceOnUse">
<stop stop-color="#A6A8AA"/>
<stop offset="0.950107" stop-color="#D2D3D4"/>
</linearGradient>
<linearGradient id="paint5_linear_11308_8668" x1="12" y1="2" x2="12" y2="21.9999" gradientUnits="userSpaceOnUse">
<stop stop-color="#A6A8AA"/>
<stop offset="0.950107" stop-color="#D2D3D4"/>
</linearGradient>
</defs>
</svg>
