<svg width="24" height="24" viewBox="0 0 24 24" fill="none" xmlns="http://www.w3.org/2000/svg">
<path d="M11.7224 17.8147C11.7227 16.8262 11.9783 15.8561 12.4622 15.0064C12.9461 14.1566 13.6404 13.4587 14.4722 12.9861C15.304 12.5134 16.2425 12.2834 17.189 12.3204C17.6998 12.3404 18.2027 12.4377 18.6826 12.6074C19.214 12.7952 19.859 12.4485 19.859 11.8848C19.859 10.6717 19.859 8.17851 19.859 5.99966C19.859 3.79052 18.0682 2 15.859 2H7C4.79085 2 2.99998 3.79088 3 6.00004L3.00005 11.8848C3.00005 13.2171 3.00008 15.6217 3.0001 17.7628C3.00012 19.9658 4.78151 21.7536 6.98454 21.7622L9.88421 21.7735C10.8111 21.7771 11.8806 21.5341 12.1931 20.6615C12.2609 20.4723 12.2771 20.2806 12.2003 20.1057C12.1775 20.0537 12.1554 20.0012 12.134 19.9483C11.8616 19.273 11.7216 18.5475 11.7224 17.8147ZM7.34369 7.20101H15.514C15.7504 7.20101 15.9771 7.29904 16.1443 7.47353C16.3115 7.64802 16.4054 7.88468 16.4054 8.13145C16.4054 8.37822 16.3115 8.61488 16.1443 8.78937C15.9771 8.96386 15.7504 9 15.514 9H7.34369C7.10726 9 6.88238 8.96386 6.7152 8.78937C6.54802 8.61488 6.4541 8.37822 6.4541 8.13145C6.4541 7.88468 6.54802 7.64802 6.7152 7.47353C6.88238 7.29904 7.10913 7.20101 7.34556 7.20101H7.34369ZM7.34369 13C7.11037 12.995 6.88823 12.9382 6.72491 12.7642C6.56159 12.5902 6.47012 12.3563 6.47012 12.1128C6.47012 11.8692 6.56159 11.6353 6.72491 11.4614C6.88823 11.2874 7.11037 11.1871 7.34369 11.1821H12.0035C12.1221 11.1796 12.24 11.2018 12.3504 11.2474C12.4607 11.2931 12.5611 11.3612 12.6459 11.4479C12.7307 11.5345 12.798 11.638 12.844 11.7522C12.8899 11.8663 12.9136 11.9889 12.9136 12.1128C12.9136 12.2366 12.8899 12.3592 12.844 12.4734C12.798 12.5876 12.7307 12.691 12.6459 12.7777C12.5611 12.8643 12.4607 12.8751 12.3504 12.9208C12.24 12.9664 12.1221 12.9886 12.0035 12.9861L7.34369 13Z" fill="url(#paint0_linear_11308_8609)"/>
<path d="M16.9907 13.6309C16.1977 13.6309 15.4225 13.8763 14.7632 14.3361C14.1039 14.7959 13.59 15.4495 13.2865 16.2141C12.9831 16.9787 12.9037 17.8201 13.0584 18.6319C13.2131 19.4436 13.5949 20.1892 14.1556 20.7745C14.7164 21.3597 15.4308 21.7583 16.2085 21.9197C16.9862 22.0812 17.7924 21.9983 18.525 21.6816C19.2576 21.3649 19.8838 20.8285 20.3243 20.1404C20.7649 19.4522 21 18.6431 21 17.8155C21 16.7057 20.5776 15.6413 19.8257 14.8565C19.0738 14.0717 18.054 13.6309 16.9907 13.6309ZM18.5798 18.428H16.911C16.7844 18.428 16.663 18.3755 16.5736 18.2821C16.4841 18.1887 16.4338 18.062 16.4338 17.9299V15.2542C16.4338 15.1222 16.4841 14.9955 16.5736 14.9021C16.663 14.8087 16.7844 14.7562 16.911 14.7562C17.0375 14.7562 17.1589 14.8087 17.2484 14.9021C17.3379 14.9955 17.3881 15.1222 17.3881 15.2542V17.4319H18.5798C18.7063 17.4319 18.8277 17.4844 18.9172 17.5778C19.0067 17.6712 19.0569 17.7979 19.0569 17.9299C19.0569 18.062 19.0067 18.1887 18.9172 18.2821C18.8277 18.3755 18.7063 18.428 18.5798 18.428Z" fill="url(#paint1_linear_11308_8609)"/>
<defs>
<linearGradient id="paint0_linear_11308_8609" x1="12" y1="2" x2="12" y2="22.0001" gradientUnits="userSpaceOnUse">
<stop stop-color="#A6A8AA"/>
<stop offset="0.950107" stop-color="#D2D3D4"/>
</linearGradient>
<linearGradient id="paint1_linear_11308_8609" x1="12" y1="2" x2="12" y2="22.0001" gradientUnits="userSpaceOnUse">
<stop stop-color="#A6A8AA"/>
<stop offset="0.950107" stop-color="#D2D3D4"/>
</linearGradient>
</defs>
</svg>
