<svg width="24" height="24" viewBox="0 0 24 24" fill="none" xmlns="http://www.w3.org/2000/svg">
<g clip-path="url(#clip0_11308_8558)">
<path d="M11.0526 2.80357C11.3589 1.89708 12.6411 1.89708 12.9474 2.80357L14.6889 7.95742C14.8263 8.36376 15.2074 8.63729 15.6363 8.63729H21.1862C22.1644 8.63729 22.5607 9.89686 21.7588 10.4571L17.3373 13.546C16.973 13.8005 16.8203 14.2649 16.9626 14.6859L18.6673 19.7305C18.9763 20.6449 17.9385 21.4232 17.1472 20.8704L12.5727 17.6747C12.2287 17.4344 11.7713 17.4344 11.4273 17.6747L6.85281 20.8704C6.06152 21.4232 5.02373 20.6449 5.33274 19.7305L7.0374 14.6859C7.17967 14.2649 7.02703 13.8005 6.66272 13.546L2.24115 10.4571C1.43926 9.89686 1.83565 8.63729 2.81384 8.63729H8.36368C8.7926 8.63729 9.17375 8.36376 9.31106 7.95742L11.0526 2.80357Z" fill="url(#paint0_linear_11308_8558)"/>
</g>
<defs>
<linearGradient id="paint0_linear_11308_8558" x1="12" y1="0" x2="12" y2="25" gradientUnits="userSpaceOnUse">
<stop stop-color="#A6A8AA"/>
<stop offset="0.950107" stop-color="#D2D3D4"/>
</linearGradient>
<clipPath id="clip0_11308_8558">
<rect width="24" height="24" fill="white"/>
</clipPath>
</defs>
</svg>
