<svg width="24" height="24" viewBox="0 0 24 24" fill="none" xmlns="http://www.w3.org/2000/svg">
<path d="M7.47344 3C5.01577 3 3.02344 4.93995 3.02344 7.33301V11.0923C3.02344 11.4857 3.48585 11.7258 3.85042 11.5561C4.61817 11.1988 5.47789 10.9987 6.3856 10.9987C9.63619 10.9987 12.2713 13.5646 12.2713 16.7297C12.2713 17.0188 12.2493 17.3029 12.2069 17.5805C12.1586 17.8965 12.3973 18.1996 12.7254 18.1996H17.5498C20.0075 18.1996 21.9998 16.2596 21.9998 13.8666C21.9998 13.761 21.9118 13.6753 21.8033 13.6753H19.409C17.6642 13.6753 16.2498 12.298 16.2498 10.599C16.2498 8.90013 17.6642 7.52286 19.409 7.52286H21.8048C21.9125 7.52286 21.9998 7.43787 21.9998 7.33301C21.9998 4.93995 20.0075 3 17.5498 3H7.47344Z" fill="url(#paint0_linear_11308_8655)"/>
<path d="M19.4092 8.9835H21.5C21.7761 8.9835 22 9.20147 22 9.47035V11.7279C22 11.9968 21.7761 12.2148 21.5 12.2148H19.4092C18.4928 12.2148 17.75 11.4914 17.75 10.5991C17.75 9.70685 18.4928 8.9835 19.4092 8.9835Z" fill="url(#paint1_linear_11308_8655)"/>
<path fill-rule="evenodd" clip-rule="evenodd" d="M6.32766 21C8.71776 21 10.6554 19.0624 10.6554 16.6723C10.6554 14.2822 8.71776 12.3446 6.32766 12.3446C3.93756 12.3446 2 14.2822 2 16.6723C2 19.0624 3.93756 21 6.32766 21ZM7.0677 14.9688C7.0677 14.56 6.73636 14.2287 6.32762 14.2287C5.91889 14.2287 5.58755 14.56 5.58755 14.9688V15.4389C5.58755 15.7113 5.36665 15.9322 5.09417 15.9322H4.62407C4.21534 15.9322 3.884 16.2636 3.884 16.6723C3.884 17.081 4.21534 17.4124 4.62407 17.4124H5.09417C5.36665 17.4124 5.58755 17.6332 5.58755 17.9058V18.3759C5.58755 18.7846 5.91889 19.116 6.32762 19.116C6.73636 19.116 7.0677 18.7846 7.0677 18.3759V17.9058C7.0677 17.6332 7.28859 17.4124 7.56108 17.4124H8.03118C8.43991 17.4124 8.77126 17.081 8.77126 16.6723C8.77126 16.2636 8.43991 15.9322 8.03118 15.9322H7.56108C7.28859 15.9322 7.0677 15.7113 7.0677 15.4389V14.9688Z" fill="url(#paint2_linear_11308_8655)"/>
<defs>
<linearGradient id="paint0_linear_11308_8655" x1="12" y1="3" x2="12" y2="21" gradientUnits="userSpaceOnUse">
<stop stop-color="#A6A8AA"/>
<stop offset="0.950107" stop-color="#D2D3D4"/>
</linearGradient>
<linearGradient id="paint1_linear_11308_8655" x1="12" y1="3" x2="12" y2="21" gradientUnits="userSpaceOnUse">
<stop stop-color="#A6A8AA"/>
<stop offset="0.950107" stop-color="#D2D3D4"/>
</linearGradient>
<linearGradient id="paint2_linear_11308_8655" x1="12" y1="3" x2="12" y2="21" gradientUnits="userSpaceOnUse">
<stop stop-color="#A6A8AA"/>
<stop offset="0.950107" stop-color="#D2D3D4"/>
</linearGradient>
</defs>
</svg>
