<svg width="24" height="24" viewBox="0 0 24 24" fill="none" xmlns="http://www.w3.org/2000/svg">
<path d="M12.0158 10.0896C10.3556 10.0739 8.96498 11.4278 8.94935 13.0799C8.93373 14.7909 10.2736 16.1997 11.9377 16.2193C13.6213 16.239 15.0354 14.889 15.055 13.2369C15.0784 11.4866 13.7463 10.1092 12.0158 10.0896Z" fill="url(#paint0_linear_11308_8419)"/>
<path d="M21.9926 9.92081C21.9887 8.90441 21.5473 8.08423 20.7543 7.46419C20.1918 7.02467 19.5472 6.82453 18.8363 6.82453C18.0238 6.82845 17.2152 6.82453 16.3792 6.82453C16.2972 6.36146 16.2269 5.92193 16.1409 5.48241C15.9729 4.64653 15.1995 4.00294 14.3557 4.00294C12.8049 3.99902 11.2541 3.99902 9.69938 4.00294C8.7892 3.99509 8.00403 4.65046 7.84387 5.55305C7.78528 5.87092 7.72668 6.19271 7.68371 6.51451C7.65246 6.75389 7.55871 6.84415 7.3048 6.8363C6.55478 6.8206 5.80477 6.82845 5.05475 6.8363C3.37893 6.852 2 8.25298 2 9.93651V16.8747C2 18.5779 3.37503 19.9867 5.06647 19.9906C9.69157 20.0024 14.3167 20.0024 18.9379 19.9945C20.6098 19.9906 21.9887 18.5739 21.9926 16.8904C22.0004 14.5633 22.0043 12.2401 21.9926 9.92081ZM12.0158 17.7773C9.43375 17.7773 7.38683 15.7013 7.39464 13.0917C7.40246 10.5722 9.49625 8.51983 12.0432 8.5316C14.5745 8.5473 16.6058 10.6193 16.6019 13.1819C16.598 15.7013 14.5237 17.7773 12.0158 17.7773ZM18.6136 10.7685C18.1527 10.7724 17.7738 10.3996 17.7699 9.93258C17.7699 9.92866 17.7699 9.92474 17.7699 9.91689C17.7855 9.46167 18.1488 9.10063 18.6019 9.09278C19.0902 9.08493 19.4457 9.4342 19.4496 9.92081C19.4535 10.4074 19.098 10.7685 18.6136 10.7685Z" fill="url(#paint1_linear_11308_8419)"/>
<defs>
<linearGradient id="paint0_linear_11308_8419" x1="12" y1="4" x2="12" y2="20" gradientUnits="userSpaceOnUse">
<stop stop-color="#5EC8A1"/>
<stop offset="0.950107" stop-color="#00A86B"/>
</linearGradient>
<linearGradient id="paint1_linear_11308_8419" x1="12" y1="4" x2="12" y2="20" gradientUnits="userSpaceOnUse">
<stop stop-color="#5EC8A1"/>
<stop offset="0.950107" stop-color="#00A86B"/>
</linearGradient>
</defs>
</svg>
