<svg width="24" height="24" viewBox="0 0 24 24" fill="none" xmlns="http://www.w3.org/2000/svg">
<path d="M3.5 7.5C3.5 5.29086 5.29086 3.5 7.5 3.5C9.70914 3.5 11.5 5.29086 11.5 7.5C11.5 9.70914 9.70914 11.5 7.5 11.5C5.29086 11.5 3.5 9.70914 3.5 7.5Z" fill="url(#paint0_linear_11308_8413)"/>
<path d="M12.5 7.5C12.5 5.29086 14.2909 3.5 16.5 3.5C18.7091 3.5 20.5 5.29086 20.5 7.5C20.5 9.70914 18.7091 11.5 16.5 11.5C14.2909 11.5 12.5 9.70914 12.5 7.5Z" fill="url(#paint1_linear_11308_8413)"/>
<path d="M3.5 16.5C3.5 14.2909 5.29086 12.5 7.5 12.5C9.70914 12.5 11.5 14.2909 11.5 16.5C11.5 18.7091 9.70914 20.5 7.5 20.5C5.29086 20.5 3.5 18.7091 3.5 16.5Z" fill="url(#paint2_linear_11308_8413)"/>
<path d="M12.5 16.5C12.5 14.2909 14.2909 12.5 16.5 12.5C18.7091 12.5 20.5 14.2909 20.5 16.5C20.5 18.7091 18.7091 20.5 16.5 20.5C14.2909 20.5 12.5 18.7091 12.5 16.5Z" fill="url(#paint3_linear_11308_8413)"/>
<defs>
<linearGradient id="paint0_linear_11308_8413" x1="12" y1="3.5" x2="12" y2="20.5" gradientUnits="userSpaceOnUse">
<stop stop-color="#5EC8A1"/>
<stop offset="0.950107" stop-color="#00A86B"/>
</linearGradient>
<linearGradient id="paint1_linear_11308_8413" x1="12" y1="3.5" x2="12" y2="20.5" gradientUnits="userSpaceOnUse">
<stop stop-color="#5EC8A1"/>
<stop offset="0.950107" stop-color="#00A86B"/>
</linearGradient>
<linearGradient id="paint2_linear_11308_8413" x1="12" y1="3.5" x2="12" y2="20.5" gradientUnits="userSpaceOnUse">
<stop stop-color="#5EC8A1"/>
<stop offset="0.950107" stop-color="#00A86B"/>
</linearGradient>
<linearGradient id="paint3_linear_11308_8413" x1="12" y1="3.5" x2="12" y2="20.5" gradientUnits="userSpaceOnUse">
<stop stop-color="#5EC8A1"/>
<stop offset="0.950107" stop-color="#00A86B"/>
</linearGradient>
</defs>
</svg>
