<svg width="24" height="24" viewBox="0 0 24 24" fill="none" xmlns="http://www.w3.org/2000/svg">
<path fill-rule="evenodd" clip-rule="evenodd" d="M13.2807 10.3789V7.19019C13.9661 7.29668 14.9039 7.95211 15.4812 8.64297C15.7701 8.97953 16.1125 9.47539 16.5997 9.15648L18.7281 7.75711C19.1251 7.49133 19.0705 7.13707 18.674 6.62347C17.5555 4.92293 15.2829 3.66512 13.2807 3.34625V2.62008C13.2807 2.28348 12.9918 2 12.6314 2H12H11.3686C11.0259 2 10.7373 2.28348 10.7373 2.62008V3.32863C7.76099 3.6475 5.03735 5.33035 5.03735 8.57219C5.03735 11.8848 7.97755 12.9653 10.7373 13.6208V16.8095C10.0519 16.7033 9.09584 16.0656 8.51886 15.357C8.23023 15.0202 7.88751 14.5417 7.40029 14.8432L5.27193 16.2602C4.87516 16.5257 4.92921 16.8626 5.32598 17.3941C6.44455 19.0767 8.71705 20.3345 10.7373 20.6537V21.3799C10.7373 21.7162 11.0259 22 11.3686 22H12H12.6314C12.9918 22 13.2808 21.7162 13.2808 21.3799V20.6714C16.2387 20.3522 18.9804 18.6696 18.9804 15.4455C18.9803 12.1152 16.0224 11.0344 13.2807 10.3789ZM13.2807 14.2408C13.8039 14.3824 15.1748 14.7547 15.1748 15.4455C15.1748 16.4018 14.0743 16.7741 13.2807 16.9157V14.2408ZM10.7373 9.75886C10.2143 9.61726 8.82547 9.24531 8.82547 8.57219C8.82547 7.59785 9.94372 7.2259 10.7373 7.08398V9.75886Z" fill="url(#paint0_linear_11308_8461)"/>
<defs>
<linearGradient id="paint0_linear_11308_8461" x1="12" y1="2" x2="12" y2="22" gradientUnits="userSpaceOnUse">
<stop stop-color="#5EC8A1"/>
<stop offset="0.950107" stop-color="#00A86B"/>
</linearGradient>
</defs>
</svg>
