<svg width="24" height="24" viewBox="0 0 24 24" fill="none" xmlns="http://www.w3.org/2000/svg">
<path d="M8.06749 4.99951C6.05455 4.99951 4.41694 6.67608 4.41694 8.73685C4.41694 10.7976 6.05455 12.4742 8.06749 12.4742C10.0804 12.4742 11.7181 10.7976 11.7181 8.73685C11.7181 6.67608 10.0805 4.99951 8.06749 4.99951Z" fill="url(#paint0_linear_11308_8477)"/>
<path d="M16.3671 5.53346C16.3589 5.53346 16.3505 5.5335 16.3423 5.53354C15.4975 5.54029 14.7085 5.88469 14.1205 6.50338C13.5428 7.11113 13.2287 7.91291 13.236 8.76096C13.2432 9.60902 13.571 10.4057 14.1589 11.0042C14.7515 11.6073 15.5365 11.9386 16.3719 11.9386C16.3803 11.9386 16.3887 11.9385 16.3971 11.9385C17.2419 11.9317 18.0309 11.5873 18.6189 10.9686C19.1966 10.3609 19.5107 9.55912 19.5034 8.71103C19.4884 6.95359 18.0839 5.53346 16.3671 5.53346Z" fill="url(#paint1_linear_11308_8477)"/>
<path d="M16.5211 12.5506H16.2179C14.8062 12.5506 13.5179 13.0688 12.5453 13.9182C12.7886 14.0985 13.0203 14.295 13.2398 14.507C13.8875 15.1324 14.3961 15.8611 14.7515 16.6728C15.0719 17.4038 15.2547 18.174 15.2972 18.9672H22V17.8405C22 14.9238 19.5422 12.5506 16.5211 12.5506Z" fill="url(#paint2_linear_11308_8477)"/>
<path d="M14.1231 18.9682C14.0125 17.2486 13.1098 15.7361 11.7625 14.7668C10.7824 14.0614 9.5668 13.6439 8.25 13.6439H7.88516C4.63477 13.6439 2 16.188 2 19.3265V20.0009H14.1348V19.3265C14.1348 19.2062 14.1309 19.0866 14.1231 18.9682Z" fill="url(#paint3_linear_11308_8477)"/>
<defs>
<linearGradient id="paint0_linear_11308_8477" x1="12" y1="4.99951" x2="12" y2="20.0009" gradientUnits="userSpaceOnUse">
<stop stop-color="#5EC8A1"/>
<stop offset="0.950107" stop-color="#00A86B"/>
</linearGradient>
<linearGradient id="paint1_linear_11308_8477" x1="12" y1="4.99951" x2="12" y2="20.0009" gradientUnits="userSpaceOnUse">
<stop stop-color="#5EC8A1"/>
<stop offset="0.950107" stop-color="#00A86B"/>
</linearGradient>
<linearGradient id="paint2_linear_11308_8477" x1="12" y1="4.99951" x2="12" y2="20.0009" gradientUnits="userSpaceOnUse">
<stop stop-color="#5EC8A1"/>
<stop offset="0.950107" stop-color="#00A86B"/>
</linearGradient>
<linearGradient id="paint3_linear_11308_8477" x1="12" y1="4.99951" x2="12" y2="20.0009" gradientUnits="userSpaceOnUse">
<stop stop-color="#5EC8A1"/>
<stop offset="0.950107" stop-color="#00A86B"/>
</linearGradient>
</defs>
</svg>
