<svg width="24" height="24" viewBox="0 0 24 24" fill="none" xmlns="http://www.w3.org/2000/svg">
<path d="M18 10.4615V8.15385C18 4.75518 15.3138 2 12 2C8.68625 2 6 4.75518 6 8.15385V10.4615C4.34307 10.4615 3 11.8391 3 13.5385V18.9231C3 20.6224 4.34308 22 6 22H18C19.6569 22 21 20.6224 21 18.9231V13.5385C21 11.8391 19.6569 10.4615 18 10.4615ZM12.75 17.3846C12.75 17.8094 12.4142 18.1538 12 18.1538C11.5858 18.1538 11.25 17.8094 11.25 17.3846V15.0769C11.25 14.6521 11.5858 14.3077 12 14.3077C12.4142 14.3077 12.75 14.6521 12.75 15.0769V17.3846ZM16.5 10.4615H7.50001V8.15385C7.50001 5.60892 9.51875 3.53846 12 3.53846C14.4813 3.53846 16.5 5.60891 16.5 8.15385V10.4615Z" fill="url(#paint0_linear_11308_8485)"/>
<defs>
<linearGradient id="paint0_linear_11308_8485" x1="12" y1="2" x2="12" y2="22" gradientUnits="userSpaceOnUse">
<stop stop-color="#5EC8A1"/>
<stop offset="0.950107" stop-color="#00A86B"/>
</linearGradient>
</defs>
</svg>
