<svg width="24" height="24" viewBox="0 0 24 24" fill="none" xmlns="http://www.w3.org/2000/svg">
<path d="M17.793 5H8.10719C5.78244 5 3.89139 6.67712 3.89139 8.74419V15.324L2.13318 17.834C1.89484 18.1747 1.98471 18.6403 2.33635 18.8713C2.46528 18.9546 2.61375 19 2.77004 19H17.7891C20.1138 19 22.0049 17.3191 22.0049 15.2558V8.74419C22.0088 6.68091 20.1177 5 17.793 5ZM13.8819 14.8318H8.59558C8.1697 14.8318 7.82588 14.4986 7.82588 14.086C7.82588 13.6733 8.1697 13.3402 8.59558 13.3402H13.8819C14.3078 13.3402 14.6516 13.6733 14.6516 14.086C14.6516 14.4986 14.3078 14.8318 13.8819 14.8318ZM17.3476 10.6598H8.59558C8.1697 10.6598 7.82588 10.3267 7.82588 9.91401C7.82588 9.50135 8.1697 9.1682 8.59558 9.1682H17.3476C17.7734 9.1682 18.1173 9.50135 18.1173 9.91401C18.1173 10.3267 17.7734 10.6598 17.3476 10.6598Z" fill="url(#paint0_linear_11308_8523)"/>
<defs>
<linearGradient id="paint0_linear_11308_8523" x1="12.0024" y1="5" x2="12.0024" y2="19" gradientUnits="userSpaceOnUse">
<stop stop-color="#5EC8A1"/>
<stop offset="0.950107" stop-color="#00A86B"/>
</linearGradient>
</defs>
</svg>
