<svg width="24" height="24" viewBox="0 0 24 24" fill="none" xmlns="http://www.w3.org/2000/svg">
<mask id="mask0_11308_8540" style="mask-type:luminance" maskUnits="userSpaceOnUse" x="1" y="1" width="22" height="22">
<path d="M1 1H23V23H1V1Z" fill="white"/>
</mask>
<g mask="url(#mask0_11308_8540)">
<path fill-rule="evenodd" clip-rule="evenodd" d="M12.7179 22.5418C13.6661 22.5418 14.5164 21.9578 14.8568 21.0729C15.4121 19.6289 16.9009 18.7695 18.429 19.0105C19.3656 19.1581 20.2965 18.7137 20.7706 17.8926L21.4883 16.6494C21.9624 15.8283 21.8819 14.7998 21.2856 14.0626C20.3128 12.8597 20.3128 11.1406 21.2856 9.93778C21.8819 9.20048 21.9624 8.17211 21.4883 7.35092L20.7706 6.10774C20.2965 5.28655 19.3656 4.84216 18.429 4.98988C16.9008 5.23088 15.4121 4.37137 14.8568 2.9275C14.5164 2.04248 13.6661 1.4585 12.7179 1.4585H11.2824C10.3341 1.4585 9.48382 2.04248 9.14343 2.92751C8.58809 4.37137 7.09937 5.23089 5.57128 4.98989C4.63463 4.84217 3.70373 5.28655 3.22962 6.10775L2.51187 7.35092C2.03776 8.17212 2.11836 9.20049 2.71461 9.93778C3.68737 11.1406 3.68737 12.8597 2.71461 14.0626C2.11836 14.7998 2.03776 15.8283 2.51187 16.6494L3.22962 17.8926C3.70374 18.7137 4.63464 19.1581 5.57129 19.0105C7.09937 18.7695 8.5881 19.6289 9.14343 21.0728C9.48382 21.9578 10.3341 22.5418 11.2824 22.5418H12.7179ZM8.79177 12.0002C8.79177 10.2282 10.2282 8.79183 12.0001 8.79183C13.772 8.79183 15.2084 10.2282 15.2084 12.0002C15.2084 13.7721 13.772 15.2085 12.0001 15.2085C10.2282 15.2085 8.79177 13.7721 8.79177 12.0002Z" fill="url(#paint0_linear_11308_8540)"/>
</g>
<defs>
<linearGradient id="paint0_linear_11308_8540" x1="12.0001" y1="1.4585" x2="12.0001" y2="22.5418" gradientUnits="userSpaceOnUse">
<stop stop-color="#5EC8A1"/>
<stop offset="0.950107" stop-color="#00A86B"/>
</linearGradient>
</defs>
</svg>
