<svg width="24" height="24" viewBox="0 0 24 24" fill="none" xmlns="http://www.w3.org/2000/svg">
<path d="M14 20.4375C14 20.7482 14.2524 21 14.5631 21H19.3125C20.5762 21 21 20.5762 21 19.3125V10.4663C21 9.53949 20.5787 8.66295 19.855 8.08397L14.6713 3.93703C13.9131 3.33045 12.971 3 12 3C11.029 3 10.0869 3.33045 9.32872 3.93703L4.14502 8.08397C3.42132 8.66295 3 9.53949 3 10.4663V19.3125C3 20.5762 3.4238 21 4.6875 21H9.43672C9.74725 21 9.99965 20.748 9.99922 20.4375V13.9446C9.99922 13.634 10.2511 13.3821 10.5617 13.3821H13.4381C13.7485 13.3821 14.0003 13.6342 14.0006 13.9446L14 20.4375Z" fill="url(#paint0_linear_11308_8582)"/>
<defs>
<linearGradient id="paint0_linear_11308_8582" x1="12" y1="3" x2="12" y2="21" gradientUnits="userSpaceOnUse">
<stop stop-color="#A6A8AA"/>
<stop offset="0.950107" stop-color="#D2D3D4"/>
</linearGradient>
</defs>
</svg>
