<svg width="24" height="24" viewBox="0 0 24 24" fill="none" xmlns="http://www.w3.org/2000/svg">
<path d="M10.7538 3C9.72902 3 8.88456 3.87128 8.88456 4.92857V5.57143H5.76916H4.52299C4.17887 5.57143 3.8999 5.85926 3.8999 6.2143C3.8999 6.56934 4.17887 6.85717 4.52299 6.85717H5.1777L5.73263 17.8196C5.82003 19.546 7.13112 21 8.8468 21H15.1153C16.8311 21 18.1366 19.5444 18.2295 17.8209L18.8197 6.85713H19.4768C19.8209 6.85713 20.0999 6.56931 20.0999 6.21427C20.0999 5.85922 19.8209 5.5714 19.4768 5.5714H18.2307H15.1153V4.92857C15.1153 3.87128 14.2708 3 13.2461 3H10.7538ZM10.7538 4.2857H13.2461C13.602 4.2857 13.8692 4.56129 13.8692 4.92857V5.57143H10.1307V4.92857C10.1307 4.56132 10.3978 4.2857 10.7538 4.2857ZM10.1307 9.42857C10.4748 9.42857 10.7538 9.71639 10.7538 10.0714V16.5C10.7538 16.855 10.4748 17.1429 10.1307 17.1429C9.78658 17.1429 9.50761 16.855 9.50761 16.5V10.0714C9.50761 9.71639 9.78658 9.42857 10.1307 9.42857ZM13.8691 9.42857C14.2133 9.42857 14.4922 9.71639 14.4922 10.0714V16.5C14.4922 16.855 14.2133 17.1429 13.8691 17.1429C13.525 17.1429 13.2461 16.855 13.2461 16.5V10.0714C13.2461 9.71639 13.525 9.42857 13.8691 9.42857Z" fill="url(#paint0_linear_11308_8551)"/>
<defs>
<linearGradient id="paint0_linear_11308_8551" x1="11.9999" y1="3" x2="11.9999" y2="21" gradientUnits="userSpaceOnUse">
<stop stop-color="#A6A8AA"/>
<stop offset="0.950107" stop-color="#D2D3D4"/>
</linearGradient>
</defs>
</svg>
