<svg width="24" height="24" viewBox="0 0 24 24" fill="none" xmlns="http://www.w3.org/2000/svg">
<path d="M21.782 11.2757C20.7013 9.62982 17.5635 5.75 12 5.75C6.43655 5.75 3.29873 9.62982 2.21797 11.2757C1.92735 11.7182 1.92735 12.2818 2.21797 12.7243C3.29873 14.3702 6.43655 18.25 12 18.25C17.5635 18.25 20.7013 14.3702 21.782 12.7243C22.0727 12.2818 22.0727 11.7182 21.782 11.2757ZM12 16.079C9.63305 16.079 7.71428 14.2528 7.71428 12C7.71428 9.74724 9.63305 7.92103 12 7.92103C14.367 7.92103 16.2857 9.74724 16.2857 12C16.2857 14.2528 14.367 16.079 12 16.079ZM13.928 11.1247C13.5 10.5 13.5 10.5 12.9197 10.165C12.6401 10.0377 12.3306 9.96052 12 9.96052C10.8165 9.96052 9.85714 10.8736 9.85714 12C9.85714 13.1264 10.8165 14.0395 12 14.0395C13.1835 14.0395 14.1429 13.1264 14.1429 12C14.1429 11.6853 14.0618 11.3908 13.928 11.1247Z" fill="url(#paint0_linear_11308_8315)"/>
<defs>
<linearGradient id="paint0_linear_11308_8315" x1="12" y1="5.75" x2="12" y2="18.25" gradientUnits="userSpaceOnUse">
<stop stop-color="#787878"/>
<stop offset="0.950107" stop-color="#1F1F1F"/>
</linearGradient>
</defs>
</svg>
