<svg width="24" height="24" viewBox="0 0 24 24" fill="none" xmlns="http://www.w3.org/2000/svg">
<path fill-rule="evenodd" clip-rule="evenodd" d="M12 2C8.13679 2 5 5.28576 5 9.33244C5 13.2257 6.94943 17.8019 9.03065 20.1974C10.0359 21.3538 11.1017 22 12 22C12.8996 22 13.9653 21.3538 14.9706 20.1974C17.0525 17.8019 19 13.2257 19 9.33244C19 5.28576 15.8632 2 12 2ZM12.0032 5.99466C10.2467 5.99466 8.82055 7.4885 8.82055 9.32911C8.82055 11.1691 10.2467 12.6629 12.0032 12.6629C13.7603 12.6629 15.1864 11.1691 15.1864 9.32911C15.1864 7.4885 13.7603 5.99466 12.0032 5.99466ZM12.0032 7.32844C13.0575 7.32844 13.9131 8.22474 13.9131 9.32911C13.9131 10.4328 13.0575 11.3291 12.0032 11.3291C10.9495 11.3291 10.0939 10.4328 10.0939 9.32911C10.0939 8.22474 10.9495 7.32844 12.0032 7.32844Z" fill="url(#paint0_linear_11308_8288)"/>
<defs>
<linearGradient id="paint0_linear_11308_8288" x1="12" y1="2" x2="12" y2="22" gradientUnits="userSpaceOnUse">
<stop stop-color="#787878"/>
<stop offset="0.950107" stop-color="#1F1F1F"/>
</linearGradient>
</defs>
</svg>
