<svg width="24" height="24" viewBox="0 0 24 24" fill="none" xmlns="http://www.w3.org/2000/svg">
<path d="M15.4999 13.8332C15.0391 13.8332 14.6666 14.2066 14.6666 14.6664V17.9998C14.6666 18.459 14.2932 18.8331 13.8332 18.8331H11.3332V6.33325C11.3332 5.62159 10.8799 4.98576 10.1983 4.7491L9.95153 4.66655H13.8332C14.2932 4.66655 14.6666 5.04069 14.6666 5.49997V7.99995C14.6666 8.45984 15.0391 8.83322 15.4999 8.83322C15.9607 8.83322 16.3331 8.45984 16.3331 7.99995V5.49997C16.3331 4.12166 15.2115 3 13.8332 3H4.87498C4.84324 3 4.81669 3.01419 4.78587 3.01831C4.74574 3.01495 4.70744 3 4.6667 3C3.74752 3 3 3.74737 3 4.66655V19.6664C3 20.3781 3.45333 21.0139 4.13494 21.2505L9.14999 22.9223C9.31997 22.9748 9.48904 22.9998 9.66665 22.9998C10.5858 22.9998 11.3332 22.2523 11.3332 21.3331V20.4998H13.8332C15.2115 20.4998 16.3331 19.3782 16.3331 17.9998V14.6664C16.3331 14.2066 15.9607 13.8332 15.4999 13.8332Z" fill="url(#paint0_linear_11308_8343)"/>
<path d="M22.7557 10.7443L19.4223 7.41105C19.1841 7.17271 18.8257 7.101 18.5141 7.23009C18.2033 7.35933 17.9999 7.66343 17.9999 8.00019V10.5002H14.6666C14.2066 10.5002 13.8332 10.8734 13.8332 11.3334C13.8332 11.7935 14.2066 12.1667 14.6666 12.1667H17.9999V14.6667C17.9999 15.0034 18.2033 15.3075 18.5141 15.4368C18.8257 15.5659 19.1841 15.4942 19.4223 15.256L22.7557 11.9226C23.0814 11.5968 23.0814 11.0701 22.7557 10.7443Z" fill="url(#paint1_linear_11308_8343)"/>
<defs>
<linearGradient id="paint0_linear_11308_8343" x1="13" y1="3" x2="13" y2="22.9998" gradientUnits="userSpaceOnUse">
<stop stop-color="#787878"/>
<stop offset="0.950107" stop-color="#1F1F1F"/>
</linearGradient>
<linearGradient id="paint1_linear_11308_8343" x1="13" y1="3" x2="13" y2="22.9998" gradientUnits="userSpaceOnUse">
<stop stop-color="#787878"/>
<stop offset="0.950107" stop-color="#1F1F1F"/>
</linearGradient>
</defs>
</svg>
