<svg width="24" height="24" viewBox="0 0 24 24" fill="none" xmlns="http://www.w3.org/2000/svg">
<path d="M19.5537 4C21.139 4.00017 21.9999 5.03318 22 6.93555V8.7998C20.5283 8.7998 19.333 10.234 19.333 12C19.333 13.766 20.5283 15.2002 22 15.2002V17.0645C21.9999 18.9668 21.139 19.9998 19.5537 20H4.44629C2.86098 19.9998 2.00014 18.9668 2 17.0645V15.2002C3.47166 15.2002 4.66699 13.766 4.66699 12C4.66699 10.234 3.47166 8.7998 2 8.7998V6.93555C2.00014 5.03323 2.86098 4.00017 4.44629 4H19.5537ZM15 15.25C14.5858 15.25 14.25 15.5858 14.25 16V18.5C14.25 18.9142 14.5858 19.25 15 19.25C15.4142 19.25 15.75 18.9142 15.75 18.5V16C15.75 15.5858 15.4142 15.25 15 15.25ZM15 10C14.5858 10 14.25 10.3358 14.25 10.75V13.25C14.25 13.6642 14.5858 14 15 14C15.4142 14 15.75 13.6642 15.75 13.25V10.75C15.75 10.3358 15.4142 10 15 10ZM15 4.75C14.5858 4.75 14.25 5.08579 14.25 5.5V8C14.25 8.41421 14.5858 8.75 15 8.75C15.4142 8.75 15.75 8.41421 15.75 8V5.5C15.75 5.08579 15.4142 4.75 15 4.75Z" fill="url(#paint0_linear_11308_8368)"/>
<defs>
<linearGradient id="paint0_linear_11308_8368" x1="12" y1="4" x2="12" y2="20" gradientUnits="userSpaceOnUse">
<stop stop-color="#787878"/>
<stop offset="0.950107" stop-color="#1F1F1F"/>
</linearGradient>
</defs>
</svg>
