<svg width="24" height="24" viewBox="0 0 24 24" fill="none" xmlns="http://www.w3.org/2000/svg">
<path d="M17.2859 2H6.71406C5.46382 2 4.26478 2.49666 3.38072 3.38072C2.49666 4.26478 2 5.46382 2 6.71406L2 17.2859C2 18.5362 2.49666 19.7352 3.38072 20.6193C4.26478 21.5033 5.46382 22 6.71406 22H17.2859C18.5362 22 19.7352 21.5033 20.6193 20.6193C21.5033 19.7352 22 18.5362 22 17.2859V6.71406C22 5.46382 21.5033 4.26478 20.6193 3.38072C19.7352 2.49666 18.5362 2 17.2859 2ZM9.44102 7.84102L11.409 5.87188L11.4172 5.86445C11.4208 5.86061 11.4246 5.85696 11.4285 5.85352C11.44 5.84284 11.4513 5.83268 11.4625 5.82305C11.4648 5.82144 11.4669 5.8196 11.4687 5.81758C11.4833 5.80586 11.4982 5.79453 11.5133 5.78359L11.5195 5.7793C11.5352 5.76836 11.5508 5.7582 11.5668 5.74844C11.5848 5.7375 11.6027 5.72773 11.6207 5.71836C11.6575 5.7001 11.6957 5.68456 11.7348 5.67188H11.7383C11.775 5.66011 11.8124 5.65085 11.8504 5.64414H11.8609C11.8793 5.64102 11.8973 5.63867 11.9156 5.63672C11.9328 5.63672 11.9504 5.63437 11.968 5.63359H11.9813H12.0344H12.0391C12.0562 5.63359 12.0734 5.63633 12.0906 5.63828H12.1008C12.1384 5.64299 12.1756 5.65043 12.2121 5.66055H12.216C12.2538 5.67112 12.2909 5.68417 12.327 5.69961C12.3629 5.7154 12.3976 5.73381 12.4309 5.75469L12.4355 5.75742C12.4676 5.77797 12.4982 5.80054 12.5273 5.825L12.5371 5.8332C12.5508 5.8457 12.5648 5.8582 12.5781 5.87227L14.5551 7.84805C14.7105 8.00345 14.7978 8.21422 14.7978 8.43398C14.7978 8.65375 14.7105 8.86452 14.5551 9.01992C14.3997 9.17532 14.1889 9.26263 13.9691 9.26263C13.7494 9.26263 13.5386 9.17532 13.3832 9.01992L12.8203 8.45742V13.423C12.8204 13.5318 12.799 13.6395 12.7574 13.7399C12.7158 13.8404 12.6549 13.9317 12.578 14.0086C12.5011 14.0855 12.4099 14.1465 12.3094 14.1881C12.209 14.2297 12.1013 14.2512 11.9926 14.2512C11.773 14.2512 11.5625 14.164 11.4073 14.0087C11.2521 13.8535 11.1648 13.643 11.1648 13.4234V8.45781L10.6102 9.01289C10.4548 9.16829 10.244 9.25559 10.0242 9.25559C9.80445 9.25559 9.59368 9.16829 9.43828 9.01289C9.28288 8.85749 9.19558 8.64672 9.19558 8.42695C9.19558 8.20718 9.28288 7.99642 9.43828 7.84102H9.44102ZM18.4844 14.6652C18.4829 15.6475 18.0921 16.5892 17.3975 17.2838C16.7029 17.9784 15.7612 18.3693 14.7789 18.3707H9.22109C8.23879 18.3693 7.29713 17.9784 6.60253 17.2838C5.90793 16.5892 5.51707 15.6475 5.51562 14.6652V12.6906C5.51562 12.471 5.60287 12.2604 5.75818 12.1051C5.91348 11.9497 6.12412 11.8625 6.34375 11.8625C6.56338 11.8625 6.77402 11.9497 6.92932 12.1051C7.08463 12.2604 7.17187 12.471 7.17187 12.6906V14.6652C7.1725 15.2085 7.38859 15.7294 7.77276 16.1136C8.15693 16.4977 8.6778 16.7138 9.22109 16.7145H14.7789C15.3222 16.7138 15.8431 16.4977 16.2272 16.1136C16.6114 15.7294 16.8275 15.2085 16.8281 14.6652V12.6906C16.8281 12.471 16.9154 12.2604 17.0707 12.1051C17.226 11.9497 17.4366 11.8625 17.6562 11.8625C17.8759 11.8625 18.0865 11.9497 18.2418 12.1051C18.3971 12.2604 18.4844 12.471 18.4844 12.6906V14.6652Z" fill="url(#paint0_linear_11308_8352)"/>
<defs>
<linearGradient id="paint0_linear_11308_8352" x1="12" y1="2" x2="12" y2="22" gradientUnits="userSpaceOnUse">
<stop stop-color="#787878"/>
<stop offset="0.950107" stop-color="#1F1F1F"/>
</linearGradient>
</defs>
</svg>
