<svg width="24" height="24" viewBox="0 0 24 24" fill="none" xmlns="http://www.w3.org/2000/svg">
<path d="M21.782 11.256C21.1642 10.2895 19.8625 8.57978 17.831 7.28701L18.9511 6.19201C19.2301 5.91923 19.2301 5.47734 18.9511 5.20458C18.672 4.93181 18.22 4.93181 17.941 5.20458L5.04895 17.808C4.76993 18.0808 4.76993 18.5226 5.04895 18.7954C5.18846 18.9318 5.37121 19 5.55397 19C5.73673 19 5.91948 18.9318 6.05899 18.7954L7.45896 17.4267C8.74036 18.0217 10.2481 18.4197 12 18.4197C17.5634 18.4197 20.7013 14.4346 21.782 12.7439C22.0727 12.2895 22.0727 11.7105 21.782 11.256ZM12 16.1898C11.0743 16.1898 10.2209 15.899 9.52127 15.4106L11.0792 13.8875C11.3579 14.0192 11.6691 14.0949 12 14.0949C13.1835 14.0949 14.1429 13.157 14.1429 12C14.1429 11.6765 14.0654 11.3722 13.9308 11.0999L15.4888 9.5768C15.9884 10.2608 16.2857 11.0951 16.2857 12C16.2857 14.3139 14.367 16.1898 12 16.1898ZM7.86669 13.0927C7.77034 12.7438 7.71428 12.3787 7.71428 12C7.71428 9.68605 9.63305 7.81023 12 7.81023C12.3873 7.81023 12.7609 7.86504 13.1177 7.95918L15.0928 6.02826C14.1586 5.75114 13.1321 5.58023 12 5.58023C6.43655 5.58023 3.29873 9.56542 2.21797 11.256C1.92734 11.7105 1.92734 12.2895 2.21797 12.7439C2.70974 13.5133 3.63285 14.7562 5.0113 15.8841L7.86669 13.0927Z" fill="url(#paint0_linear_11308_8437)"/>
<defs>
<linearGradient id="paint0_linear_11308_8437" x1="12" y1="5" x2="12" y2="19" gradientUnits="userSpaceOnUse">
<stop stop-color="#5EC8A1"/>
<stop offset="0.950107" stop-color="#00A86B"/>
</linearGradient>
</defs>
</svg>
