<svg width="24" height="24" viewBox="0 0 24 24" fill="none" xmlns="http://www.w3.org/2000/svg">
<path d="M11.6051 17.8185C11.6054 16.8301 11.8575 15.8599 12.3348 15.0102C12.8122 14.1604 13.4973 13.4625 14.3179 12.9899C15.1385 12.5172 16.0644 12.2873 16.9981 12.3243C17.502 12.3442 17.9982 12.4415 18.4716 12.6112C18.9958 12.7991 19.6322 12.4523 19.6322 11.8887C19.6322 10.6756 19.6322 8.18237 19.6322 6.00354C19.6322 3.79442 17.8654 2.00391 15.686 2.00391H6.94618C4.76675 2.00391 2.99998 3.79478 3 6.00392L3.00005 11.8887C3.00005 13.221 3.00008 15.6256 3.0001 17.7666C3.00012 19.9696 4.75754 21.7574 6.93094 21.766L10.0652 21.7783C10.8033 21.7813 11.5895 21.5651 11.9589 20.9054C12.1057 20.6432 12.1848 20.3593 12.0765 20.1095C12.054 20.0575 12.0322 20.005 12.0111 19.9521C11.7424 19.2768 11.6043 18.5513 11.6051 17.8185ZM7.28525 7.20488H15.3456C15.5789 7.20488 15.8351 7.26692 16 7.44141C16.1649 7.6159 16.2409 7.75714 16.2409 8.00391C16.2409 8.25067 16.1649 8.3802 16 8.55469C15.8351 8.72918 15.5947 8.76598 15.3614 8.76598H7.30106C7.06781 8.76598 6.86267 8.72918 6.69773 8.55469C6.5328 8.3802 6.5 8.25067 6.5 8.00391C6.5 7.75714 6.5328 7.6159 6.69773 7.44141C6.86267 7.26692 7.05385 7.20488 7.2871 7.20488H7.28525ZM7.30106 12.8046C6.71354 12.8046 6.42343 12.4772 6.42343 12.0039C6.42343 11.6953 6.60547 11.186 7.28525 11.186C7.66797 11.186 10.1914 11.186 11.8824 11.186C12.5195 11.186 12.7802 11.5977 12.7802 12.0039C12.7802 12.5 12.5158 12.8008 11.8982 12.7907L7.30106 12.8046Z" fill="url(#paint0_linear_11308_8532)"/>
<path d="M16.9641 13.663C19.1931 13.663 21 15.5285 21 17.8297C21 20.1309 19.1931 21.9963 16.9641 21.9963C14.7352 21.9963 12.9282 20.1309 12.9282 17.8297C12.9282 15.5285 14.7352 13.663 16.9641 13.663ZM19.3029 15.7887C19.1025 15.6058 18.7966 15.6251 18.6195 15.8318L16.4841 18.3245L15.7124 17.4228C15.5352 17.216 15.2293 17.1968 15.029 17.3796C14.8287 17.5626 14.8101 17.8784 14.9872 18.0852L16.0088 19.2782C16.2618 19.5736 16.7079 19.5736 16.961 19.2782L19.3447 16.4942C19.5218 16.2874 19.5031 15.9716 19.3029 15.7887Z" fill="url(#paint1_linear_11308_8532)"/>
<defs>
<linearGradient id="paint0_linear_11308_8532" x1="12" y1="2.00391" x2="12" y2="21.9963" gradientUnits="userSpaceOnUse">
<stop stop-color="#5EC8A1"/>
<stop offset="0.950107" stop-color="#00A86B"/>
</linearGradient>
<linearGradient id="paint1_linear_11308_8532" x1="12" y1="2.00391" x2="12" y2="21.9963" gradientUnits="userSpaceOnUse">
<stop stop-color="#5EC8A1"/>
<stop offset="0.950107" stop-color="#00A86B"/>
</linearGradient>
</defs>
</svg>
