<svg width="24" height="24" viewBox="0 0 24 24" fill="none" xmlns="http://www.w3.org/2000/svg">
<path d="M4 18.6667C4.00029 19.5506 4.32456 20.3983 4.90153 21.0233C5.4785 21.6484 6.26096 21.9997 7.07692 22H16.9231C17.739 21.9997 18.5215 21.6484 19.0984 21.0233C19.6754 20.3983 19.9997 19.5506 20 18.6667V9.10668C20.0015 8.66852 19.9229 8.23438 19.7687 7.82932C19.6145 7.42425 19.3877 7.05629 19.1015 6.74668L15.6184 2.97336C15.3327 2.66331 14.993 2.41767 14.6191 2.25061C14.2452 2.08355 13.8444 1.99838 13.44 2.00002H7.07692C6.26096 2.00034 5.4785 2.35163 4.90153 2.97668C4.32456 3.60174 4.00029 4.4494 4 5.33335V18.6667ZM8.30769 11.3333H15.6923C15.8555 11.3333 16.012 11.4036 16.1274 11.5286C16.2428 11.6536 16.3077 11.8232 16.3077 12C16.3077 12.1768 16.2428 12.3464 16.1274 12.4714C16.012 12.5964 15.8555 12.6667 15.6923 12.6667H8.30769C8.14448 12.6667 7.98795 12.5964 7.87254 12.4714C7.75714 12.3464 7.6923 12.1768 7.6923 12C7.6923 11.8232 7.75714 11.6536 7.87254 11.5286C7.98795 11.4036 8.14448 11.3333 8.30769 11.3333ZM8.30769 15.3333H12C12.1632 15.3333 12.3197 15.4036 12.4351 15.5286C12.5505 15.6536 12.6154 15.8232 12.6154 16C12.6154 16.1768 12.5505 16.3464 12.4351 16.4714C12.3197 16.5964 12.1632 16.6667 12 16.6667H8.30769C8.14448 16.6667 7.98795 16.5964 7.87254 16.4714C7.75714 16.3464 7.6923 16.1768 7.6923 16C7.6923 15.8232 7.75714 15.6536 7.87254 15.5286C7.98795 15.4036 8.14448 15.3333 8.30769 15.3333Z" fill="url(#paint0_linear_11308_8497)"/>
<defs>
<linearGradient id="paint0_linear_11308_8497" x1="12" y1="2" x2="12" y2="22" gradientUnits="userSpaceOnUse">
<stop stop-color="#5EC8A1"/>
<stop offset="0.950107" stop-color="#00A86B"/>
</linearGradient>
</defs>
</svg>
