<svg width="24" height="24" viewBox="0 0 24 24" fill="none" xmlns="http://www.w3.org/2000/svg">
<path fill-rule="evenodd" clip-rule="evenodd" d="M16.8947 13.579C14.6291 13.579 12.7895 15.3478 12.7895 17.5264C12.7895 19.705 14.6291 21.4737 16.8947 21.4737C19.1603 21.4737 21 19.705 21 17.5264C21 15.3478 19.1603 13.579 16.8947 13.579ZM16.0121 18.8982L17.1667 17.788C17.2386 17.7187 17.2796 17.6246 17.2796 17.5264V15.1827C17.2796 14.9784 17.1077 14.8126 16.8947 14.8126C16.6818 14.8126 16.5099 14.9784 16.5099 15.1827V17.3731L15.4682 18.3749C15.3181 18.5193 15.3181 18.7539 15.4682 18.8982C15.6183 19.0427 15.862 19.0427 16.0121 18.8982Z" fill="url(#paint0_linear_11308_8530)"/>
<path d="M11.4541 17.4659C11.4544 16.5321 11.7021 15.6156 12.1711 14.8129C12.6401 14.0102 13.3131 13.3509 14.1193 12.9044C14.9256 12.4579 15.8352 12.2407 16.7525 12.2756C17.2476 12.2945 17.7351 12.3864 18.2002 12.5467C18.7152 12.7242 19.3404 12.3966 19.3404 11.8642C19.3404 10.7182 19.3404 8.36294 19.3404 6.30468C19.3404 4.2178 17.6046 2.52637 15.4635 2.52637H6.87695C4.73576 2.52637 2.99998 4.21814 3 6.30503L3.00005 11.8642C3.00005 13.1227 3.00008 15.3942 3.0001 17.4168C3.00012 19.4979 4.72671 21.1867 6.86197 21.1949L9.94124 21.2066C10.6664 21.2093 11.4388 21.0051 11.8017 20.3819C11.9459 20.1342 12.0236 19.866 11.9173 19.6301C11.8951 19.5809 11.8737 19.5313 11.853 19.4814C11.589 18.8434 11.4534 18.1581 11.4541 17.4659ZM7.21007 7.43954H15.129C15.3582 7.43954 15.6099 7.49814 15.7719 7.66297C15.934 7.82781 16.0086 7.96124 16.0086 8.19435C16.0086 8.42746 15.934 8.54982 15.7719 8.71465C15.6099 8.87949 15.3737 8.91425 15.1445 8.91425H7.2256C6.99644 8.91425 6.7949 8.87949 6.63286 8.71465C6.47082 8.54982 6.4386 8.42746 6.4386 8.19435C6.4386 7.96124 6.47082 7.82781 6.63286 7.66297C6.7949 7.49814 6.98273 7.43954 7.21189 7.43954H7.21007ZM7.2256 12.7294C6.64839 12.7294 6.36337 12.4201 6.36337 11.973C6.36337 11.6815 6.54221 11.2003 7.21007 11.2003C7.58607 11.2003 10.0652 11.2003 11.7265 11.2003C12.3525 11.2003 12.6086 11.5892 12.6086 11.973C12.6086 12.4416 12.3489 12.7258 11.7421 12.7162L7.2256 12.7294Z" fill="url(#paint1_linear_11308_8530)"/>
<defs>
<linearGradient id="paint0_linear_11308_8530" x1="12" y1="2.52637" x2="12" y2="21.4737" gradientUnits="userSpaceOnUse">
<stop stop-color="#5EC8A1"/>
<stop offset="0.950107" stop-color="#00A86B"/>
</linearGradient>
<linearGradient id="paint1_linear_11308_8530" x1="12" y1="2.52637" x2="12" y2="21.4737" gradientUnits="userSpaceOnUse">
<stop stop-color="#5EC8A1"/>
<stop offset="0.950107" stop-color="#00A86B"/>
</linearGradient>
</defs>
</svg>
