<svg width="24" height="24" viewBox="0 0 24 24" fill="none" xmlns="http://www.w3.org/2000/svg">
<path d="M13.528 6.99462C13.528 6.30932 13.6272 5.38694 13.528 5.23979C13.3958 5.04374 13.1438 4.80002 12.7082 4.80002H5.5289C4.59664 4.79643 3.70115 5.17073 3.03938 5.84061C2.3776 6.51048 2.00374 7.42107 2 8.37211V17.4279C2.00374 18.3789 2.3776 19.2895 3.03938 19.9594C3.70115 20.6293 4.59664 21.0036 5.5289 21H16.1156C17.0479 21.0036 17.9434 20.6293 18.6051 19.9594C19.2669 19.2895 19.6408 18.3789 19.6445 17.4279V13.5213C19.6445 12.0271 19 11.7194 18.1833 11.7194C14.5 11.5 13.5 8.5 13.528 6.99462ZM7.73447 8.55481C8.13754 8.55481 8.53155 8.67674 8.86669 8.90518C9.20183 9.13363 9.46304 9.45832 9.61728 9.83821C9.77153 10.2181 9.81189 10.6361 9.73325 11.0394C9.65462 11.4427 9.46053 11.8131 9.17551 12.1039C8.8905 12.3946 8.52738 12.5926 8.13205 12.6729C7.73673 12.7531 7.32697 12.7119 6.95458 12.5545C6.5822 12.3972 6.26392 12.1307 6.03998 11.7888C5.81605 11.4469 5.69653 11.045 5.69653 10.6338C5.69723 10.0826 5.91216 9.55425 6.2942 9.16452C6.67624 8.77479 7.19419 8.55552 7.73447 8.55481ZM11.1487 17.0976C11.1074 17.144 11.057 17.1812 11.0008 17.2066C10.9446 17.232 10.8838 17.2451 10.8223 17.2452H4.64668C4.58493 17.2455 4.5238 17.2326 4.46726 17.2072C4.41071 17.1819 4.36001 17.1448 4.31843 17.0982C4.27685 17.0516 4.24531 16.9967 4.22587 16.9369C4.20643 16.8771 4.19951 16.8138 4.20557 16.7511C4.27896 16.0153 4.60065 15.3284 5.11561 14.8078C5.63056 14.2873 6.30681 13.9654 7.02869 13.8972C7.50116 13.8531 7.9766 13.8531 8.44907 13.8972C9.16938 13.9673 9.84355 14.2901 10.3567 14.8105C10.8699 15.3309 11.1903 16.0167 11.2634 16.7511C11.2691 16.8138 11.2618 16.8771 11.2421 16.9368C11.2223 16.9964 11.1905 17.0512 11.1487 17.0976ZM16.9978 17.175H15.2334C15.0579 17.175 14.8896 17.1039 14.7655 16.9773C14.6414 16.8507 14.5717 16.679 14.5717 16.5C14.5717 16.321 14.6414 16.1493 14.7655 16.0227C14.8896 15.8961 15.0579 15.825 15.2334 15.825H16.9978C17.1733 15.825 17.3416 15.8961 17.4657 16.0227C17.5898 16.1493 17.6595 16.321 17.6595 16.5C17.6595 16.679 17.5898 16.8507 17.4657 16.9773C17.3416 17.1039 17.1733 17.175 16.9978 17.175ZM16.9978 13.575H13.4689C13.2935 13.575 13.1252 13.5039 13.0011 13.3773C12.877 13.2507 12.8073 13.079 12.8073 12.9C12.8073 12.721 12.877 12.5493 13.0011 12.4227C13.1252 12.2961 13.2935 12.225 13.4689 12.225H16.703C16.7693 12.225 16.8355 12.2329 16.9008 12.2448C17.0973 12.2807 17.3605 12.3154 17.4657 12.4227C17.5898 12.5493 17.6595 12.721 17.6595 12.9C17.6595 13.079 17.5898 13.2507 17.4657 13.3773C17.3416 13.5039 17.1733 13.575 16.9978 13.575Z" fill="url(#paint0_linear_11308_8483)"/>
<path d="M18.1756 3C20.2878 3 22 4.74674 22 6.90145C22 9.05619 20.2878 10.8029 18.1756 10.8029C16.0634 10.8029 14.3512 9.05617 14.3512 6.90145C14.3512 4.74675 16.0634 3.00002 18.1756 3ZM20.5362 5.18671C20.3123 4.95844 19.9486 4.95937 19.7246 5.18759L19.7212 5.19023L19.716 5.19638C19.7135 5.19893 19.7149 5.1975 19.7126 5.1999L19.6971 5.21572C19.6851 5.22795 19.6988 5.21305 19.6867 5.22538C19.685 5.22717 19.6834 5.22961 19.6816 5.23154L19.6152 5.29921C19.5942 5.32065 19.5992 5.31465 19.5765 5.33788C19.5457 5.36924 19.5862 5.32878 19.5558 5.35986C19.5377 5.37831 19.5507 5.3642 19.5325 5.38271L19.3042 5.61562C19.272 5.64844 19.269 5.65242 19.2353 5.68681L19.0414 5.88456C19.0373 5.88883 19.0037 5.92218 18.9992 5.92675L18.9561 5.97069C18.9324 5.99488 18.9579 5.96975 18.9346 5.99355C18.9329 5.99533 18.9304 5.99705 18.9286 5.99882C18.9268 6.00063 18.9252 6.00313 18.9234 6.00497C18.9216 6.0068 18.9192 6.00844 18.9174 6.01025C18.9156 6.01207 18.914 6.01453 18.9122 6.0164C18.9073 6.02136 18.895 6.03394 18.8898 6.03925C18.8595 6.07015 18.8966 6.03145 18.8665 6.0621C18.8566 6.07225 18.854 6.07579 18.8441 6.08583L18.6253 6.30907C18.5975 6.33744 18.6274 6.3061 18.5995 6.33456C18.5976 6.33647 18.5774 6.35788 18.5745 6.36093L18.5486 6.3873C18.5312 6.4051 18.552 6.38296 18.5348 6.40048C18.5175 6.41814 18.539 6.39712 18.5219 6.41454C18.5199 6.41662 18.5171 6.41862 18.515 6.42069C18.5129 6.42282 18.5111 6.42557 18.509 6.42772C18.5069 6.4299 18.5043 6.43256 18.5021 6.43476C18.5001 6.43684 18.4973 6.43883 18.4952 6.44091C18.4894 6.44687 18.4756 6.46183 18.4694 6.46815L18.4556 6.48222C18.4439 6.49413 18.4534 6.48354 18.4418 6.4954C18.4397 6.49753 18.4378 6.50027 18.4358 6.50243L18.4013 6.53759C18.3992 6.53972 18.3965 6.54163 18.3944 6.54374L18.3462 6.59296C18.3401 6.5992 18.3384 6.60173 18.3324 6.6079L18.2411 6.70106C18.2387 6.70342 18.2357 6.70574 18.2333 6.70809C18.231 6.71044 18.2287 6.71362 18.2264 6.716C18.2242 6.71828 18.2218 6.72076 18.2195 6.72304L18.1902 6.75204C18.1879 6.75443 18.1857 6.75753 18.1833 6.75995L18.1618 6.78192C18.1595 6.7843 18.1564 6.78659 18.154 6.78895C18.1517 6.79134 18.1495 6.79444 18.1472 6.79686C18.1407 6.8034 18.1388 6.80538 18.1325 6.81181C18.1301 6.81421 18.1271 6.81645 18.1248 6.81884C18.1224 6.82124 18.1202 6.82432 18.1179 6.82675C18.1049 6.83999 18.1157 6.8289 18.1032 6.84169C18.0999 6.8451 18.0913 6.85304 18.0877 6.85663C18.0748 6.86977 18.0858 6.8586 18.0731 6.87157C18.0707 6.87397 18.0685 6.87705 18.0662 6.87948L18.0059 6.941C18.0035 6.94343 18.0005 6.94563 17.9981 6.94804C17.9915 6.9548 17.99 6.95719 17.9835 6.96386C17.9745 6.97295 17.9615 6.98542 17.9524 6.99462C17.9501 6.99704 17.9479 7.00008 17.9455 7.00253L17.9068 7.04208C17.9044 7.0445 17.9014 7.04671 17.899 7.04911L17.8292 7.1203C17.8267 7.12289 17.824 7.12646 17.8215 7.12909L17.7827 7.16864C17.7802 7.17125 17.7767 7.17394 17.7741 7.17655L17.7663 7.18446C17.7638 7.18708 17.7612 7.19059 17.7586 7.19325L17.7353 7.21698C17.7328 7.21961 17.7293 7.22227 17.7267 7.22489C17.7241 7.22753 17.7215 7.23101 17.719 7.23368L17.7035 7.2495C17.7009 7.25214 17.6975 7.25478 17.6948 7.25741C17.6922 7.26006 17.6897 7.26351 17.6871 7.2662L17.6793 7.27411C17.6767 7.27677 17.6734 7.27937 17.6707 7.28202C17.6681 7.28467 17.6655 7.28813 17.663 7.29081L17.6552 7.29872C17.6526 7.30139 17.6492 7.30397 17.6466 7.30663C17.644 7.30929 17.6414 7.31273 17.6388 7.31542L17.6311 7.32333C17.6285 7.32599 17.6251 7.32859 17.6225 7.33124C17.6198 7.33392 17.6173 7.33731 17.6147 7.34003C17.6121 7.34271 17.6088 7.34527 17.6061 7.34794C17.6035 7.35059 17.6009 7.35404 17.5983 7.35673L17.5742 7.38134C17.5716 7.38401 17.5683 7.38658 17.5656 7.38925C17.563 7.39193 17.5605 7.39533 17.5579 7.39803C17.5552 7.40072 17.5519 7.40327 17.5492 7.40594C17.5466 7.40863 17.5441 7.41202 17.5415 7.41473C17.5389 7.41742 17.5355 7.41997 17.5329 7.42264C17.5302 7.42532 17.5277 7.42872 17.5251 7.43143L17.5001 7.45692C17.4975 7.4596 17.4942 7.46216 17.4915 7.46483C17.4889 7.46754 17.4864 7.47089 17.4838 7.47362C17.4811 7.47634 17.4778 7.47883 17.4751 7.48153C17.4725 7.48422 17.47 7.4876 17.4674 7.49032C17.4647 7.49307 17.4615 7.49634 17.4588 7.49911C17.4561 7.50181 17.4528 7.50433 17.4502 7.50702C17.4475 7.50973 17.445 7.51307 17.4424 7.51581C17.4134 7.5454 17.4374 7.5209 17.4105 7.54833L16.4904 6.60966C16.4796 6.59857 16.4711 6.58912 16.4654 6.58329L16.4568 6.5745C16.2332 6.34619 15.8702 6.34583 15.6461 6.57362C15.4219 6.80174 15.4217 7.17279 15.6452 7.40155L16.8402 8.62059C17.1576 8.94343 17.6681 8.93937 17.9817 8.61971L18.0765 8.52303C18.0792 8.52033 18.0825 8.51784 18.0851 8.51512C18.1148 8.4848 18.0888 8.51046 18.1187 8.47996C18.1434 8.45482 18.2296 8.36683 18.2531 8.34286C18.2558 8.34016 18.2591 8.33766 18.2617 8.33495C18.2644 8.33222 18.2668 8.32886 18.2695 8.32616L18.2781 8.31737C18.2808 8.31469 18.2841 8.31215 18.2867 8.30946C18.2894 8.30672 18.2918 8.30338 18.2945 8.30067C18.2972 8.29797 18.3004 8.29547 18.3031 8.29276C18.3057 8.29005 18.3082 8.28665 18.3108 8.28397L18.3358 8.25848C18.3385 8.25581 18.3418 8.25325 18.3444 8.25057C18.3471 8.24786 18.3496 8.24447 18.3522 8.24178C18.3549 8.23911 18.3582 8.23656 18.3608 8.23387C18.3634 8.23116 18.3659 8.22777 18.3686 8.22508C18.3712 8.22241 18.3746 8.21985 18.3772 8.21717C18.3798 8.21447 18.3823 8.21106 18.3849 8.20838L18.4091 8.18377C18.4117 8.18112 18.4151 8.17852 18.4177 8.17586C18.4203 8.17315 18.4228 8.16976 18.4254 8.16708C18.4281 8.1644 18.4314 8.16185 18.434 8.15916C18.4366 8.15647 18.4392 8.15304 18.4418 8.15038L18.4496 8.14247C18.4522 8.13981 18.4556 8.13722 18.4582 8.13456C18.4608 8.13185 18.4633 8.12844 18.4659 8.12577C18.4684 8.12319 18.4712 8.12043 18.4737 8.11786C18.4763 8.11522 18.4797 8.11259 18.4823 8.10995C18.4849 8.10726 18.4874 8.10382 18.49 8.10116C18.4926 8.09859 18.4953 8.09582 18.4978 8.09325C18.5004 8.0906 18.5038 8.08799 18.5064 8.08534C18.509 8.08267 18.5116 8.07918 18.5142 8.07655L18.5297 8.06073C18.5323 8.0581 18.5357 8.05546 18.5383 8.05282C18.5409 8.05015 18.5435 8.04666 18.546 8.04403L18.5693 8.0203C18.5719 8.01768 18.5754 8.01501 18.5779 8.01239C18.5804 8.00982 18.5832 8.00705 18.5857 8.00448C18.5882 8.00183 18.5909 7.9983 18.5934 7.99569L18.6322 7.95614C18.6348 7.95355 18.6383 7.95082 18.6408 7.94823L18.7106 7.87704C18.713 7.87459 18.7151 7.87155 18.7175 7.86913L18.7942 7.7909C18.8007 7.78425 18.803 7.78273 18.8097 7.77596C18.812 7.77352 18.8142 7.77047 18.8166 7.76805L18.8321 7.75223C18.8345 7.74985 18.8375 7.7476 18.8398 7.7452C18.8422 7.74275 18.8444 7.73971 18.8467 7.73729L18.8769 7.70653C18.8793 7.70415 18.8823 7.7019 18.8846 7.6995C18.887 7.69705 18.8892 7.69401 18.8915 7.69159C18.8939 7.68919 18.8969 7.68697 18.8993 7.68456C18.9016 7.68214 18.9038 7.67903 18.9062 7.67665L18.9286 7.6538C18.931 7.65141 18.934 7.64916 18.9363 7.64676C18.9387 7.64433 18.9409 7.64126 18.9432 7.63885C18.9456 7.63647 18.9486 7.63423 18.951 7.63182C18.9533 7.62939 18.9555 7.62631 18.9579 7.62391C18.9602 7.62154 18.9633 7.61927 18.9656 7.61688C18.9679 7.61447 18.9702 7.61135 18.9725 7.60897C18.9849 7.59633 18.9744 7.60707 18.9872 7.59403C18.9993 7.58162 18.9891 7.59293 19.0018 7.57997C19.0272 7.55402 19.0046 7.57621 19.0302 7.55008C19.0364 7.54382 19.0387 7.54237 19.0449 7.53602C19.0472 7.53363 19.0495 7.53047 19.0518 7.52811C19.054 7.52583 19.0564 7.52336 19.0587 7.52108C19.061 7.51874 19.0641 7.5164 19.0664 7.51405C19.0687 7.51169 19.071 7.50846 19.0733 7.50614L19.094 7.48505C19.0963 7.48272 19.0995 7.48034 19.1017 7.47801C19.104 7.47574 19.1064 7.47326 19.1086 7.47098C19.1109 7.46862 19.1133 7.46539 19.1155 7.46307L19.15 7.42792C19.1523 7.42562 19.1555 7.42318 19.1577 7.42089L19.1991 7.3787C19.2012 7.37654 19.203 7.3738 19.2051 7.37167L19.2465 7.32948C19.2486 7.32737 19.2513 7.32546 19.2534 7.32333C19.2554 7.32118 19.2573 7.31841 19.2594 7.3163L19.3326 7.24159C19.3383 7.23582 19.3407 7.23424 19.3464 7.22841C19.3694 7.20493 19.336 7.23812 19.3594 7.21434L19.411 7.16161C19.4163 7.15623 19.4185 7.15491 19.424 7.1493C19.4349 7.13817 19.4251 7.14724 19.436 7.13612L19.5963 6.97264C19.5981 6.97083 19.6005 6.96921 19.6023 6.96737C19.6042 6.96541 19.6064 6.96316 19.6083 6.96122C19.6117 6.95774 19.6162 6.95232 19.6195 6.94891L19.7669 6.79862C19.7861 6.77897 19.7918 6.77407 19.8108 6.75468C19.8356 6.72941 19.8277 6.73652 19.8522 6.71161L19.9383 6.62372C19.9399 6.6222 19.942 6.62087 19.9435 6.61933C19.9518 6.61081 19.9444 6.61751 19.953 6.60878C19.9545 6.60728 19.9566 6.6059 19.9581 6.60438C19.9596 6.6028 19.9609 6.60065 19.9624 6.59911L20.0279 6.53231C20.0294 6.53085 20.0316 6.5294 20.0331 6.52792C20.0345 6.52642 20.036 6.52408 20.0374 6.52265L20.0986 6.46024C20.1135 6.44504 20.1009 6.45877 20.1158 6.44354C20.1889 6.36898 20.2969 6.25789 20.3432 6.21064C20.3515 6.20225 20.3587 6.19486 20.3665 6.1869C20.3859 6.16715 20.3685 6.18573 20.388 6.16581C20.3937 6.16006 20.422 6.13024 20.4259 6.12626C20.432 6.12012 20.4293 6.12371 20.4354 6.11747C20.4406 6.1122 20.438 6.11399 20.4432 6.10868L20.4458 6.10692L20.4475 6.10429L20.4492 6.10253L20.4518 6.10077C20.4589 6.09356 20.4523 6.10021 20.4596 6.09286C20.4941 6.05765 20.4391 6.11282 20.4733 6.07792L20.4923 6.05858L20.494 6.05771L20.4949 6.05595C20.4976 6.0532 20.4954 6.05631 20.4983 6.05331L20.5009 6.05067L20.5018 6.04892L20.5035 6.04804C20.5129 6.0384 20.498 6.05272 20.5078 6.04276C20.5114 6.03906 20.5085 6.04205 20.5121 6.03837C20.5156 6.03488 20.511 6.04034 20.5147 6.03661L20.5156 6.03485L20.5354 6.01464C20.7591 5.78617 20.7601 5.4151 20.5362 5.18671Z" fill="url(#paint1_linear_11308_8483)"/>
<defs>
<linearGradient id="paint0_linear_11308_8483" x1="12" y1="3" x2="12" y2="21" gradientUnits="userSpaceOnUse">
<stop stop-color="#5EC8A1"/>
<stop offset="0.950107" stop-color="#00A86B"/>
</linearGradient>
<linearGradient id="paint1_linear_11308_8483" x1="12" y1="3" x2="12" y2="21" gradientUnits="userSpaceOnUse">
<stop stop-color="#5EC8A1"/>
<stop offset="0.950107" stop-color="#00A86B"/>
</linearGradient>
</defs>
</svg>
