<svg width="24" height="24" viewBox="0 0 24 24" fill="none" xmlns="http://www.w3.org/2000/svg">
<path d="M18 3.00003H6C4.94328 2.99604 3.92825 3.41193 3.17813 4.15624C2.42801 4.90054 2.00424 5.91231 2 6.96903V17.031C2.00424 18.0877 2.42801 19.0995 3.17813 19.8438C3.92825 20.5881 4.94328 21.004 6 21H18C19.0567 21.004 20.0718 20.5881 20.8219 19.8438C21.572 19.0995 21.9958 18.0877 22 17.031V6.96903C21.9958 5.91231 21.572 4.90054 20.8219 4.15624C20.0718 3.41193 19.0567 2.99604 18 3.00003ZM8.5 7.17203C8.95687 7.17203 9.40349 7.30751 9.78337 7.56133C10.1632 7.81516 10.4593 8.17593 10.6342 8.59803C10.809 9.02013 10.8547 9.48459 10.7656 9.93269C10.6765 10.3808 10.4565 10.7924 10.1334 11.1154C9.81036 11.4385 9.39875 11.6585 8.95066 11.7476C8.50256 11.8368 8.0381 11.791 7.616 11.6162C7.1939 11.4414 6.83313 11.1453 6.57931 10.7654C6.32548 10.3855 6.19 9.9389 6.19 9.48203C6.19079 8.86962 6.43442 8.28253 6.86746 7.84949C7.3005 7.41645 7.88759 7.17282 8.5 7.17203ZM12.37 16.664C12.3232 16.7156 12.2661 16.7569 12.2023 16.7851C12.1386 16.8134 12.0697 16.828 12 16.828H5C4.93 16.8284 4.86072 16.814 4.79662 16.7859C4.73253 16.7577 4.67506 16.7165 4.62793 16.6647C4.5808 16.613 4.54506 16.5519 4.52302 16.4854C4.50098 16.419 4.49314 16.3487 4.5 16.279C4.5832 15.4615 4.94782 14.6983 5.53153 14.1199C6.11523 13.5414 6.88175 13.1838 7.7 13.108C8.23555 13.059 8.77445 13.059 9.31 13.108C10.1265 13.186 10.8906 13.5446 11.4723 14.1228C12.054 14.701 12.4172 15.463 12.5 16.279C12.5065 16.3487 12.4983 16.419 12.4759 16.4853C12.4535 16.5517 12.4174 16.6125 12.37 16.664ZM19 16.75H17C16.8011 16.75 16.6103 16.671 16.4697 16.5304C16.329 16.3897 16.25 16.1989 16.25 16C16.25 15.8011 16.329 15.6104 16.4697 15.4697C16.6103 15.329 16.8011 15.25 17 15.25H19C19.1989 15.25 19.3897 15.329 19.5303 15.4697C19.671 15.6104 19.75 15.8011 19.75 16C19.75 16.1989 19.671 16.3897 19.5303 16.5304C19.3897 16.671 19.1989 16.75 19 16.75ZM19 12.75H15C14.8011 12.75 14.6103 12.671 14.4697 12.5304C14.329 12.3897 14.25 12.1989 14.25 12C14.25 11.8011 14.329 11.6104 14.4697 11.4697C14.6103 11.329 14.8011 11.25 15 11.25H19C19.1989 11.25 19.3897 11.329 19.5303 11.4697C19.671 11.6104 19.75 11.8011 19.75 12C19.75 12.1989 19.671 12.3897 19.5303 12.5304C19.3897 12.671 19.1989 12.75 19 12.75ZM19 8.75003H14C13.8011 8.75003 13.6103 8.67101 13.4697 8.53036C13.329 8.38971 13.25 8.19894 13.25 8.00003C13.25 7.80112 13.329 7.61035 13.4697 7.4697C13.6103 7.32905 13.8011 7.25003 14 7.25003H19C19.1989 7.25003 19.3897 7.32905 19.5303 7.4697C19.671 7.61035 19.75 7.80112 19.75 8.00003C19.75 8.19894 19.671 8.38971 19.5303 8.53036C19.3897 8.67101 19.1989 8.75003 19 8.75003Z" fill="url(#paint0_linear_11308_8472)"/>
<defs>
<linearGradient id="paint0_linear_11308_8472" x1="12" y1="3" x2="12" y2="21.0001" gradientUnits="userSpaceOnUse">
<stop stop-color="#5EC8A1"/>
<stop offset="0.950107" stop-color="#00A86B"/>
</linearGradient>
</defs>
</svg>
