<svg width="24" height="24" viewBox="0 0 24 24" fill="none" xmlns="http://www.w3.org/2000/svg">
<path d="M12 2C10.0222 2 8.08879 2.58649 6.4443 3.6853C4.79981 4.78412 3.51809 6.3459 2.76121 8.17316C2.00433 10.0004 1.8063 12.0111 2.19215 13.9509C2.578 15.8907 3.53041 17.6725 4.92894 19.0711C6.32746 20.4696 8.10929 21.422 10.0491 21.8078C11.9889 22.1937 13.9996 21.9957 15.8268 21.2388C17.6541 20.4819 19.2159 19.2002 20.3147 17.5557C21.4135 15.9112 22 13.9778 22 12C21.9964 9.34893 20.9417 6.80748 19.0671 4.93289C17.1925 3.05831 14.6511 2.00359 12 2ZM12.8475 16.0678C12.8475 16.2926 12.7582 16.5081 12.5992 16.667C12.4403 16.826 12.2248 16.9153 12 16.9153C11.7752 16.9153 11.5597 16.826 11.4008 16.667C11.2418 16.5081 11.1525 16.2926 11.1525 16.0678V11.322C11.1525 11.0973 11.2418 10.8817 11.4008 10.7228C11.5597 10.5639 11.7752 10.4746 12 10.4746C12.2248 10.4746 12.4403 10.5639 12.5992 10.7228C12.7582 10.8817 12.8475 11.0973 12.8475 11.322V16.0678ZM12.8475 8.32881C12.8475 8.55357 12.7582 8.76913 12.5992 8.92805C12.4403 9.08698 12.2248 9.17627 12 9.17627C11.7752 9.17627 11.5597 9.08698 11.4008 8.92805C11.2418 8.76913 11.1525 8.55357 11.1525 8.32881V7.9322C11.1525 7.70744 11.2418 7.49189 11.4008 7.33296C11.5597 7.17403 11.7752 7.08474 12 7.08474C12.2248 7.08474 12.4403 7.17403 12.5992 7.33296C12.7582 7.49189 12.8475 7.70744 12.8475 7.9322V8.32881Z" fill="url(#paint0_linear_11308_8492)"/>
<defs>
<linearGradient id="paint0_linear_11308_8492" x1="12" y1="2" x2="12" y2="22" gradientUnits="userSpaceOnUse">
<stop stop-color="#5EC8A1"/>
<stop offset="0.950107" stop-color="#00A86B"/>
</linearGradient>
</defs>
</svg>
