<svg width="24" height="24" viewBox="0 0 24 24" fill="none" xmlns="http://www.w3.org/2000/svg">
<path d="M17.7694 14.363C19.8121 14.363 21.4681 16.0726 21.4681 18.1815C21.4681 20.2904 19.8121 22 17.7694 22C15.7267 22 14.0708 20.2904 14.0708 18.1815C14.0708 16.0726 15.7267 14.363 17.7694 14.363ZM19.9128 16.311C19.7292 16.1435 19.4488 16.1611 19.2865 16.3506L17.3295 18.6349L16.6223 17.8086C16.4599 17.6191 16.1796 17.6015 15.996 17.7691C15.8125 17.9367 15.7954 18.2261 15.9577 18.4157L16.8939 19.509C17.1258 19.7797 17.5347 19.7797 17.7666 19.509L19.9511 16.9576C20.1134 16.7681 20.0963 16.4787 19.9128 16.311Z" fill="url(#paint0_linear_11308_8538)"/>
<path d="M17.644 9.77921C17.4434 9.75187 17.2784 9.59037 17.2784 9.38792V7.63964C17.2784 4.52496 14.8166 2 11.7797 2C8.74285 2 6.28106 4.52496 6.28106 7.63964V9.38792C6.28106 9.59037 6.11601 9.75187 5.91541 9.77921C4.56981 9.9626 3.53174 11.1441 3.53174 12.5743V17.509C3.53174 19.0663 4.76259 20.3288 6.28106 20.3288H13.0195C13.292 20.3288 13.484 20.0346 13.4054 19.7736C13.2841 19.3707 13.1544 18.769 13.1544 18.0377C13.1544 16.7473 13.7869 15.5723 14.529 14.8302C15.2316 14.1276 16.4584 13.5471 17.5444 13.5471C18.3242 13.5471 19.0529 13.7085 19.5166 13.8397C19.7651 13.91 20.0277 13.7262 20.0277 13.468V12.5743C20.0277 11.1441 18.9896 9.9626 17.644 9.77921ZM12.467 16.0991C12.467 16.4884 12.1593 16.804 11.7797 16.804C11.4001 16.804 11.0924 16.4884 11.0924 16.0991V13.9842C11.0924 13.5949 11.4001 13.2793 11.7797 13.2793C12.1593 13.2793 12.467 13.5949 12.467 13.9842V16.0991ZM15.9037 9.38792C15.9037 9.59037 15.7396 9.7545 15.5371 9.7545H8.0223C7.81985 9.7545 7.65573 9.59037 7.65573 9.38792V7.63964C7.65573 5.30736 9.50578 3.40991 11.7797 3.40991C14.0536 3.40991 15.9037 5.30735 15.9037 7.63964V9.38792Z" fill="url(#paint1_linear_11308_8538)"/>
<defs>
<linearGradient id="paint0_linear_11308_8538" x1="12.4999" y1="2" x2="12.4999" y2="22" gradientUnits="userSpaceOnUse">
<stop stop-color="#5EC8A1"/>
<stop offset="0.950107" stop-color="#00A86B"/>
</linearGradient>
<linearGradient id="paint1_linear_11308_8538" x1="12.4999" y1="2" x2="12.4999" y2="22" gradientUnits="userSpaceOnUse">
<stop stop-color="#5EC8A1"/>
<stop offset="0.950107" stop-color="#00A86B"/>
</linearGradient>
</defs>
</svg>
