<svg width="24" height="24" viewBox="0 0 24 24" fill="none" xmlns="http://www.w3.org/2000/svg">
<path d="M20.0001 6.00003H4.00002C3.73727 5.99966 3.47703 6.05114 3.23421 6.15152C2.99139 6.2519 2.77076 6.39921 2.58497 6.585C2.39918 6.77079 2.25187 6.99142 2.15149 7.23424C2.05111 7.47706 1.99963 7.7373 2 8.00004V16.0001C1.99963 16.2629 2.05111 16.5231 2.15149 16.7659C2.25187 17.0087 2.39918 17.2294 2.58497 17.4151C2.77076 17.6009 2.99139 17.7482 3.23421 17.8486C3.47703 17.949 3.73727 18.0005 4.00002 18.0001H20.0001C20.2629 18.0005 20.5231 17.949 20.7659 17.8486C21.0088 17.7482 21.2294 17.6009 21.4152 17.4151C21.601 17.2294 21.7483 17.0087 21.8487 16.7659C21.949 16.5231 22.0005 16.2629 22.0001 16.0001V8.00004C22.0005 7.7373 21.949 7.47706 21.8487 7.23424C21.7483 6.99142 21.601 6.77079 21.4152 6.585C21.2294 6.39921 21.0088 6.2519 20.7659 6.15152C20.5231 6.05114 20.2629 5.99966 20.0001 6.00003ZM6.6667 15.3334H5.33336C5.15655 15.3334 4.98698 15.2632 4.86195 15.1382C4.73693 15.0131 4.66669 14.8436 4.66669 14.6668C4.66669 14.4899 4.73693 14.3204 4.86195 14.1954C4.98698 14.0703 5.15655 14.0001 5.33336 14.0001H6.6667C6.84351 14.0001 7.01308 14.0703 7.13811 14.1954C7.26313 14.3204 7.33337 14.4899 7.33337 14.6668C7.33337 14.8436 7.26313 15.0131 7.13811 15.1382C7.01308 15.2632 6.84351 15.3334 6.6667 15.3334ZM12.0001 15.3334C11.3408 15.3334 10.6963 15.1379 10.1482 14.7717C9.59999 14.4054 9.17275 13.8848 8.92045 13.2757C8.66816 12.6666 8.60215 11.9964 8.73076 11.3498C8.85938 10.7032 9.17686 10.1092 9.64303 9.64303C10.1092 9.17686 10.7032 8.85938 11.3498 8.73077C11.9964 8.60215 12.6666 8.66816 13.2757 8.92045C13.8848 9.17275 14.4054 9.59999 14.7717 10.1482C15.1379 10.6963 15.3334 11.3408 15.3334 12.0001C15.3331 12.884 14.9818 13.7317 14.3567 14.3567C13.7317 14.9818 12.884 15.3331 12.0001 15.3334ZM18.6668 10.0001H17.3334C17.1566 10.0001 16.9871 9.92982 16.862 9.8048C16.737 9.67977 16.6668 9.5102 16.6668 9.33339C16.6668 9.15658 16.737 8.98701 16.862 8.86198C16.9871 8.73695 17.1566 8.66672 17.3334 8.66672H18.6668C18.8436 8.66672 19.0132 8.73695 19.1382 8.86198C19.2632 8.98701 19.3335 9.15658 19.3335 9.33339C19.3335 9.5102 19.2632 9.67977 19.1382 9.8048C19.0132 9.92982 18.8436 10.0001 18.6668 10.0001Z" fill="url(#paint0_linear_11308_8459)"/>
<path d="M12.0001 14.0001C13.1046 14.0001 14.0001 13.1046 14.0001 12.0001C14.0001 10.8955 13.1046 10.0001 12.0001 10.0001C10.8955 10.0001 10.0001 10.8955 10.0001 12.0001C10.0001 13.1046 10.8955 14.0001 12.0001 14.0001Z" fill="url(#paint1_linear_11308_8459)"/>
<path d="M14.1954 21.8048C14.3204 21.9298 14.49 22 14.6668 22C14.8435 22 15.0131 21.9298 15.1381 21.8048L16.4714 20.4715C16.5646 20.3782 16.6281 20.2595 16.6538 20.1301C16.6795 20.0008 16.6663 19.8668 16.6159 19.745C16.5654 19.6232 16.48 19.5191 16.3704 19.4459C16.2608 19.3726 16.1319 19.3335 16.0001 19.3335H8.00004C7.82323 19.3335 7.65366 19.4037 7.52864 19.5287C7.40361 19.6537 7.33337 19.8233 7.33337 20.0001C7.33337 20.1769 7.40361 20.3465 7.52864 20.4715C7.65366 20.5966 7.82323 20.6668 8.00004 20.6668H14.3908L14.1954 20.8621C14.0704 20.9872 14.0002 21.1567 14.0002 21.3335C14.0002 21.5102 14.0704 21.6798 14.1954 21.8048Z" fill="url(#paint2_linear_11308_8459)"/>
<path d="M9.80474 2.19519C9.67972 2.07021 9.51018 2 9.33341 2C9.15663 2 8.98709 2.07021 8.86207 2.19519L7.52873 3.52854C7.43552 3.62177 7.37205 3.74055 7.34634 3.86985C7.32062 3.99915 7.33383 4.13318 7.38427 4.25498C7.43472 4.37678 7.52015 4.48089 7.62976 4.55414C7.73936 4.6274 7.86823 4.66652 8.00006 4.66654H16.0001C16.1769 4.66654 16.3465 4.5963 16.4715 4.47128C16.5966 4.34625 16.6668 4.17668 16.6668 3.99987C16.6668 3.82306 16.5966 3.65349 16.4715 3.52846C16.3465 3.40344 16.1769 3.3332 16.0001 3.3332H9.60941L9.80474 3.13787C9.92972 3.01285 9.99994 2.84331 9.99994 2.66653C9.99994 2.48975 9.92972 2.32021 9.80474 2.19519Z" fill="url(#paint3_linear_11308_8459)"/>
<defs>
<linearGradient id="paint0_linear_11308_8459" x1="12.0001" y1="2" x2="12.0001" y2="22" gradientUnits="userSpaceOnUse">
<stop stop-color="#5EC8A1"/>
<stop offset="0.950107" stop-color="#00A86B"/>
</linearGradient>
<linearGradient id="paint1_linear_11308_8459" x1="12.0001" y1="2" x2="12.0001" y2="22" gradientUnits="userSpaceOnUse">
<stop stop-color="#5EC8A1"/>
<stop offset="0.950107" stop-color="#00A86B"/>
</linearGradient>
<linearGradient id="paint2_linear_11308_8459" x1="12.0001" y1="2" x2="12.0001" y2="22" gradientUnits="userSpaceOnUse">
<stop stop-color="#5EC8A1"/>
<stop offset="0.950107" stop-color="#00A86B"/>
</linearGradient>
<linearGradient id="paint3_linear_11308_8459" x1="12.0001" y1="2" x2="12.0001" y2="22" gradientUnits="userSpaceOnUse">
<stop stop-color="#5EC8A1"/>
<stop offset="0.950107" stop-color="#00A86B"/>
</linearGradient>
</defs>
</svg>
