<svg width="24" height="24" viewBox="0 0 24 24" fill="none" xmlns="http://www.w3.org/2000/svg">
<path d="M4.60445 3.94444L7.93674 3L10.4729 8.34286L8.44398 10.7714V11.7429L11.9947 15.1429H13.0091L16.0526 13.2L21.125 15.6286L20.1105 18.0571L17.5743 20L12.4949 19.5278L7.07021 16.2222L4.38606 12.2286L3.125 8.19444L4.60445 3.94444Z" fill="url(#paint0_linear_11308_8421)"/>
<path d="M20.5853 14.7736L16.1098 12.7682L16.0975 12.7625C15.8651 12.6631 15.6117 12.6232 15.36 12.6464C15.1084 12.6697 14.8665 12.7552 14.6563 12.8955C14.6315 12.9118 14.6078 12.9296 14.585 12.9487L12.2727 14.9199C10.8078 14.2084 9.29541 12.7074 8.58385 11.2614L10.558 8.91397C10.577 8.89022 10.595 8.86647 10.6121 8.84082C10.7493 8.63116 10.8326 8.39082 10.8544 8.14121C10.8763 7.8916 10.8362 7.64045 10.7375 7.41011V7.39871L8.72635 2.91562C8.59596 2.61472 8.37174 2.36406 8.08718 2.20106C7.80261 2.03806 7.47296 1.97146 7.14744 2.01121C5.86015 2.1806 4.67854 2.8128 3.8233 3.78972C2.96806 4.76664 2.49768 6.02147 2.50001 7.31986C2.50001 14.8629 8.63705 21 16.1801 21C17.4785 21.0023 18.7333 20.5319 19.7102 19.6767C20.6872 18.8214 21.3194 17.6398 21.4887 16.3525C21.5286 16.0271 21.4621 15.6976 21.2993 15.413C21.1365 15.1285 20.886 14.9042 20.5853 14.7736ZM16.1801 19.48C12.9561 19.4765 9.86521 18.1942 7.58551 15.9145C5.30582 13.6348 4.02354 10.5438 4.02002 7.31986C4.01645 6.39216 4.35067 5.49489 4.96028 4.7956C5.56988 4.0963 6.41318 3.64282 7.33269 3.51982C7.33232 3.52361 7.33232 3.52743 7.33269 3.53122L9.32771 7.99627L7.36404 10.3466C7.34411 10.3695 7.32601 10.394 7.30989 10.4197C7.16693 10.6391 7.08306 10.8917 7.06642 11.153C7.04978 11.4143 7.10092 11.6755 7.21489 11.9113C8.0756 13.6716 9.84926 15.432 11.6286 16.2917C11.8661 16.4047 12.1288 16.454 12.391 16.435C12.6533 16.4161 12.9062 16.3294 13.1249 16.1834C13.1493 16.167 13.1727 16.1493 13.1952 16.1302L15.5047 14.1599L19.9697 16.1597C19.9697 16.1597 19.9773 16.1597 19.9801 16.1597C19.8586 17.0805 19.4058 17.9255 18.7064 18.5366C18.007 19.1477 17.1089 19.4831 16.1801 19.48Z" fill="url(#paint1_linear_11308_8421)"/>
<defs>
<linearGradient id="paint0_linear_11308_8421" x1="12.125" y1="3" x2="12.125" y2="20" gradientUnits="userSpaceOnUse">
<stop stop-color="#5EC8A1"/>
<stop offset="0.950107" stop-color="#00A86B"/>
</linearGradient>
<linearGradient id="paint1_linear_11308_8421" x1="12" y1="2" x2="12" y2="21" gradientUnits="userSpaceOnUse">
<stop stop-color="#5EC8A1"/>
<stop offset="0.950107" stop-color="#00A86B"/>
</linearGradient>
</defs>
</svg>
