<svg width="24" height="24" viewBox="0 0 24 24" fill="none" xmlns="http://www.w3.org/2000/svg">
<path d="M12 3C16.9706 3 21 7.02944 21 12C21 16.9706 16.9706 21 12 21C7.02944 21 3 16.9706 3 12C3 7.02944 7.02944 3 12 3ZM12 15C7.5 15 6 16.5 6 16.5C6 16.5 7.5 19.5 12 19.5C16.5 19.5 18 16.5 18 16.5C18 16.5 16.5 15 12 15ZM12 6.25C11.0852 6.25003 10.1167 6.49554 9.4541 7.25879C8.78735 8.02696 8.58164 9.14472 8.80469 10.5469C9.03552 11.9973 9.64119 12.8533 10.373 13.3135C11.0752 13.7548 11.7729 13.75 12 13.75C12.227 13.75 12.9239 13.7547 13.626 13.3135C14.358 12.8533 14.9644 11.9976 15.1953 10.5469C15.4184 9.14473 15.2126 8.02696 14.5459 7.25879C13.8833 6.49559 12.9148 6.25002 12 6.25ZM12 7.75C12.6823 7.75002 13.1455 7.93336 13.4131 8.24121C13.6763 8.54445 13.8998 9.14153 13.7139 10.3105C13.5356 11.431 13.1187 11.8613 12.8281 12.0439C12.5079 12.2451 12.1822 12.25 12 12.25C11.8178 12.25 11.4921 12.2451 11.1719 12.0439C10.8813 11.8612 10.4643 11.4308 10.2861 10.3105C10.1002 9.14162 10.3237 8.54447 10.5869 8.24121C10.8545 7.93339 11.3177 7.75003 12 7.75Z" fill="url(#paint0_linear_11308_8450)"/>
<defs>
<linearGradient id="paint0_linear_11308_8450" x1="12" y1="3" x2="12" y2="21" gradientUnits="userSpaceOnUse">
<stop stop-color="#5EC8A1"/>
<stop offset="0.950107" stop-color="#00A86B"/>
</linearGradient>
</defs>
</svg>
