<svg width="24" height="24" viewBox="0 0 24 24" fill="none" xmlns="http://www.w3.org/2000/svg">
<path d="M3.7085 22.5601C3.82128 22.5776 3.93597 22.5892 4.05225 22.5952C3.99423 22.5922 3.93657 22.5884 3.87939 22.5825L3.7085 22.5601ZM20.0991 22.5815L20.0981 22.5825L20.0991 22.5815ZM20.9214 22.3901C20.8173 22.4289 20.7107 22.4623 20.6021 22.4907C20.6564 22.4765 20.71 22.4606 20.7632 22.4438L20.9214 22.3901ZM2.4624 22.1001H2.46338H2.4624ZM22.4741 21.2144C22.3118 21.435 22.1238 21.6354 21.9146 21.811L21.9136 21.812C21.9555 21.7769 21.9965 21.7407 22.0366 21.7036C22.1169 21.6294 22.1932 21.5508 22.2661 21.4692C22.339 21.3877 22.4081 21.3027 22.4731 21.2144H22.4741ZM1.82275 21.5894H1.82373H1.82275ZM11.9888 2.89697C12.6892 2.89702 13.3067 3.28579 13.6362 3.87549L21.397 18.2056L21.4009 18.2114C21.5559 18.4914 21.645 18.8157 21.645 19.1636C21.6447 20.2438 20.7852 21.0999 19.7495 21.1001H4.22803C3.19237 21.0998 2.3328 20.2438 2.33252 19.1636C2.33252 18.8159 2.42172 18.4914 2.57666 18.2114L2.58057 18.2056L10.3374 3.88135L10.4019 3.77295C10.7432 3.24104 11.3298 2.8971 11.9888 2.89697ZM1.24072 20.7964C1.29271 20.8936 1.34895 20.9882 1.40967 21.0796C1.34894 20.9882 1.29272 20.8936 1.24072 20.7964ZM22.6558 20.9409V20.9399V20.9409ZM23.145 19.1636C23.1449 19.7531 22.998 20.3097 22.7378 20.7964C22.7897 20.6992 22.8367 20.599 22.8794 20.4966C22.9008 20.4451 22.9209 20.393 22.9399 20.3403C23.0157 20.1302 23.0718 19.9107 23.106 19.6841C23.1145 19.6275 23.1217 19.5706 23.1274 19.5132C23.139 19.3982 23.145 19.2815 23.145 19.1636ZM0.900879 19.853C0.92336 19.9645 0.951981 20.0738 0.984863 20.1812C0.95197 20.0738 0.923369 19.9645 0.900879 19.853ZM1.09033 17.8462C0.995214 18.0784 0.925365 18.3235 0.882324 18.5776L0.85498 18.77C0.891364 18.4469 0.971415 18.1365 1.09033 17.8462ZM22.812 17.6812C22.8729 17.8096 22.9272 17.942 22.9722 18.0786C22.9272 17.9421 22.8729 17.8096 22.812 17.6812ZM11.9888 16.4761C11.5019 16.4761 11.1071 16.8772 11.1069 17.3716C11.1069 17.8662 11.5018 18.268 11.9888 18.2681C12.4758 18.2681 12.8706 17.8662 12.8706 17.3716C12.8704 16.8772 12.4757 16.4761 11.9888 16.4761ZM11.9888 7.66553C11.5748 7.66565 11.239 8.00158 11.2388 8.41553V13.7896C11.2388 14.2037 11.5747 14.5394 11.9888 14.5396C12.403 14.5396 12.7388 14.2038 12.7388 13.7896V8.41553C12.7386 8.0015 12.4028 7.66553 11.9888 7.66553ZM12.2261 1.40479C13.3248 1.4814 14.2757 2.08652 14.8384 2.9624L14.9526 3.15479C14.8081 2.89386 14.6304 2.65365 14.4253 2.43994C14.3739 2.38644 14.3208 2.33474 14.2661 2.28467C13.8838 1.93466 13.4217 1.67057 12.9097 1.5249C12.8365 1.50408 12.7622 1.48611 12.687 1.47021C12.5368 1.43844 12.383 1.41575 12.2261 1.40479ZM10.6421 1.67822V1.67725V1.67822ZM11.0679 1.5249C10.9739 1.55165 10.8819 1.58316 10.7915 1.61768C10.8114 1.61008 10.831 1.60147 10.8511 1.59424L11.0679 1.5249ZM11.5181 1.4292V1.43018V1.4292Z" fill="url(#paint0_linear_11308_8441)"/>
<defs>
<linearGradient id="paint0_linear_11308_8441" x1="12" y1="1.40479" x2="12" y2="22.5952" gradientUnits="userSpaceOnUse">
<stop stop-color="#5EC8A1"/>
<stop offset="0.950107" stop-color="#00A86B"/>
</linearGradient>
</defs>
</svg>
