<svg width="24" height="24" viewBox="0 0 24 24" fill="none" xmlns="http://www.w3.org/2000/svg">
<path d="M7.75009 2.74074C7.75009 2.33164 7.4143 2 7.00009 2C6.58588 2 6.25009 2.33164 6.25009 2.74074V4.3005C4.81076 4.41433 3.86586 4.6937 3.17166 5.37933C2.47746 6.06496 2.1946 6.99819 2.07935 8.41975H21.9208C21.8056 6.99819 21.5227 6.06496 20.8285 5.37933C20.1343 4.6937 19.1894 4.41433 17.7501 4.3005V2.74074C17.7501 2.33164 17.4143 2 17.0001 2C16.5859 2 16.2501 2.33164 16.2501 2.74074V4.23496C15.5848 4.22222 14.8391 4.22222 14.0001 4.22222H10.0001C9.16106 4.22222 8.41536 4.22222 7.75009 4.23496V2.74074Z" fill="url(#paint0_linear_11308_8298)"/>
<path fill-rule="evenodd" clip-rule="evenodd" d="M22 12.1235V14.0988C22 17.8234 22 19.6858 20.8284 20.8429C19.6569 22 17.7712 22 14 22H10C6.22876 22 4.34315 22 3.17157 20.8429C2 19.6858 2 17.8234 2 14.0988V12.1235C2 11.2948 2 10.5583 2.0129 9.90123H21.9871C22 10.5583 22 11.2948 22 12.1235ZM16.5 18.0494C17.3284 18.0494 18 17.3861 18 16.5679C18 15.7497 17.3284 15.0864 16.5 15.0864C15.6716 15.0864 15 15.7497 15 16.5679C15 17.3861 15.6716 18.0494 16.5 18.0494Z" fill="url(#paint1_linear_11308_8298)"/>
<defs>
<linearGradient id="paint0_linear_11308_8298" x1="12" y1="2" x2="12" y2="22" gradientUnits="userSpaceOnUse">
<stop stop-color="#787878"/>
<stop offset="0.950107" stop-color="#1F1F1F"/>
</linearGradient>
<linearGradient id="paint1_linear_11308_8298" x1="12" y1="2" x2="12" y2="22" gradientUnits="userSpaceOnUse">
<stop stop-color="#787878"/>
<stop offset="0.950107" stop-color="#1F1F1F"/>
</linearGradient>
</defs>
</svg>
