<svg width="24" height="24" viewBox="0 0 24 24" fill="none" xmlns="http://www.w3.org/2000/svg">
<path d="M5.33333 4C3.49238 4 2 5.4924 2 7.33333V8.66667H22V7.33333C22 5.4924 20.5076 4 18.6667 4H5.33333Z" fill="url(#paint0_linear_11308_8365)"/>
<path fill-rule="evenodd" clip-rule="evenodd" d="M22 10H2V16.6667C2 18.5076 3.49238 20 5.33333 20H18.6667C20.5076 20 22 18.5076 22 16.6667V10ZM9 16C9 16.3682 8.70153 16.6667 8.33333 16.6667H5.66667C5.29847 16.6667 5 16.3682 5 16C5 15.6318 5.29847 15.3333 5.66667 15.3333H8.33333C8.70153 15.3333 9 15.6318 9 16Z" fill="url(#paint1_linear_11308_8365)"/>
<defs>
<linearGradient id="paint0_linear_11308_8365" x1="12" y1="4" x2="12" y2="20" gradientUnits="userSpaceOnUse">
<stop stop-color="#787878"/>
<stop offset="0.950107" stop-color="#1F1F1F"/>
</linearGradient>
<linearGradient id="paint1_linear_11308_8365" x1="12" y1="4" x2="12" y2="20" gradientUnits="userSpaceOnUse">
<stop stop-color="#787878"/>
<stop offset="0.950107" stop-color="#1F1F1F"/>
</linearGradient>
</defs>
</svg>
