<svg width="24" height="24" viewBox="0 0 24 24" fill="none" xmlns="http://www.w3.org/2000/svg">
<path d="M19.2156 9.7786L21.1641 7.83012C21.5553 7.43884 21.7751 6.9082 21.7751 6.35491C21.7751 5.80161 21.5553 5.27098 21.1641 4.87969L18.8955 2.61107C18.5042 2.21981 17.9735 2 17.4202 2C16.8669 2 16.3362 2.21981 15.9449 2.61107L13.9962 4.55984L19.2156 9.7786Z" fill="url(#paint0_linear_11308_8265)"/>
<path d="M12.7252 5.83098L3.28938 15.2668C2.98177 15.5745 2.77798 15.9705 2.70651 16.3997L2.01438 20.5607C1.98715 20.7244 1.99938 20.8923 2.05007 21.0504C2.10075 21.2084 2.18842 21.3521 2.30579 21.4695C2.42316 21.5868 2.56685 21.6745 2.7249 21.7252C2.88296 21.7759 3.05083 21.7881 3.21457 21.7608L7.3756 21.0687C7.80473 20.9973 8.20081 20.7936 8.50841 20.486L17.9446 11.0498L12.7252 5.83098Z" fill="url(#paint1_linear_11308_8265)"/>
<path d="M11.8874 22C11.5894 22 11.3037 21.8816 11.0929 21.6709C10.8822 21.4602 10.7638 21.1744 10.7638 20.8764C10.7638 20.5784 10.8822 20.2926 11.0929 20.0819C11.3037 19.8712 11.5894 19.7528 11.8874 19.7528H20.8762C21.1742 19.7528 21.46 19.8712 21.6707 20.0819C21.8814 20.2926 21.9998 20.5784 21.9998 20.8764C21.9998 21.1744 21.8814 21.4602 21.6707 21.6709C21.46 21.8816 21.1742 22 20.8762 22H11.8874Z" fill="url(#paint2_linear_11308_8265)"/>
<defs>
<linearGradient id="paint0_linear_11308_8265" x1="12" y1="2" x2="12" y2="22" gradientUnits="userSpaceOnUse">
<stop stop-color="#787878"/>
<stop offset="0.950107" stop-color="#1F1F1F"/>
</linearGradient>
<linearGradient id="paint1_linear_11308_8265" x1="12" y1="2" x2="12" y2="22" gradientUnits="userSpaceOnUse">
<stop stop-color="#787878"/>
<stop offset="0.950107" stop-color="#1F1F1F"/>
</linearGradient>
<linearGradient id="paint2_linear_11308_8265" x1="12" y1="2" x2="12" y2="22" gradientUnits="userSpaceOnUse">
<stop stop-color="#787878"/>
<stop offset="0.950107" stop-color="#1F1F1F"/>
</linearGradient>
</defs>
</svg>
