<svg width="24" height="24" viewBox="0 0 24 24" fill="none" xmlns="http://www.w3.org/2000/svg">
<path d="M12.0979 3.69841C14.3632 1.43388 18.0357 1.43384 20.301 3.69841C22.5664 5.96326 22.5664 9.6357 20.301 11.9006C18.747 13.4541 16.5307 13.9415 14.5608 13.3634C13.9298 13.1782 13.2477 13.342 12.7825 13.8068L12.1399 14.4494C12.0084 14.5809 11.9348 14.7595 11.9348 14.9455V16.4025C11.9347 16.7895 11.6206 17.1035 11.2336 17.1037H10.1868C9.79955 17.1037 9.4856 17.4177 9.4856 17.8049V18.8508C9.4856 19.2379 9.17149 19.5517 8.78442 19.5519H7.73755C7.35038 19.5519 7.03646 19.8659 7.03638 20.2531V21.299C7.03632 21.6864 6.72165 22.0006 6.33423 22.0002L2.70044 21.9963C2.3137 21.9958 2.00041 21.6818 2.00024 21.2951V19.6867C2.00024 19.5006 2.07464 19.3221 2.2063 19.1906L10.1887 11.216C10.6545 10.7507 10.8194 10.0685 10.634 9.43669C10.0563 7.46739 10.5441 5.25182 12.0979 3.69841ZM16.1555 5.42302C14.8125 5.42307 13.7239 6.51162 13.7239 7.85466C13.7239 9.19765 14.8126 10.2862 16.1555 10.2863C17.4985 10.2863 18.5871 9.19769 18.5872 7.85466C18.5872 6.51159 17.4985 5.42302 16.1555 5.42302Z" fill="url(#paint0_linear_11308_8304)"/>
<defs>
<linearGradient id="paint0_linear_11308_8304" x1="12.0001" y1="2" x2="12.0001" y2="22.0003" gradientUnits="userSpaceOnUse">
<stop stop-color="#787878"/>
<stop offset="0.950107" stop-color="#1F1F1F"/>
</linearGradient>
</defs>
</svg>
