<svg width="24" height="24" viewBox="0 0 24 24" fill="none" xmlns="http://www.w3.org/2000/svg">
<path d="M12.625 2C12.4588 2 12.3 2.06625 12.1825 2.1825C12.065 2.29875 12 2.46 12 2.625L12.0025 11.3775C12.0025 11.5438 12.0687 11.7025 12.185 11.82C12.3012 11.9375 12.4625 12.0025 12.6275 12.0025L21.375 12C21.72 12 22 11.72 22 11.375C22 6.205 17.795 2 12.625 2Z" fill="url(#paint0_linear_11308_8326)"/>
<path d="M20.4962 13.4651C20.3775 13.3288 20.205 13.2501 20.025 13.2501H10.75V3.97507C10.75 3.79382 10.6712 3.62132 10.535 3.50382C10.3987 3.38382 10.2175 3.32882 10.0375 3.35632C5.455 4.00382 2 7.98757 2 12.6251C2 17.7951 6.205 22.0001 11.375 22.0001C16.0125 22.0001 19.9975 18.5438 20.6437 13.9613C20.67 13.7826 20.6162 13.6013 20.4962 13.4651Z" fill="url(#paint1_linear_11308_8326)"/>
<defs>
<linearGradient id="paint0_linear_11308_8326" x1="12" y1="2" x2="12" y2="22.0001" gradientUnits="userSpaceOnUse">
<stop stop-color="#787878"/>
<stop offset="0.950107" stop-color="#1F1F1F"/>
</linearGradient>
<linearGradient id="paint1_linear_11308_8326" x1="12" y1="2" x2="12" y2="22.0001" gradientUnits="userSpaceOnUse">
<stop stop-color="#787878"/>
<stop offset="0.950107" stop-color="#1F1F1F"/>
</linearGradient>
</defs>
</svg>
