<svg width="24" height="24" viewBox="0 0 24 24" fill="none" xmlns="http://www.w3.org/2000/svg">
<path d="M9.5 13.5172V12.978C9.5 11.6463 10.6212 10.5654 12 10.5654C13.38 10.5654 14.5 11.6463 14.5 12.978V13.5136C17.1825 13.3917 19.72 13.1046 22 12.6535V9.34712C22 7.67282 20.5888 6.31095 18.8525 6.31095H5.14625C4.25 6.31095 3.44375 6.67886 2.87125 7.26148H2.8625V7.27113C2.33125 7.81516 2 8.54254 2 9.34712V12.7572C4.3075 13.1493 6.83625 13.4062 9.5 13.5172Z" fill="url(#paint0_linear_11308_8332)"/>
<path d="M10.75 12.9784V14.3354C10.75 15.0001 11.3112 15.5417 12 15.5417C12.6912 15.5417 13.25 15.0001 13.25 14.3354V12.9784C13.25 12.3125 12.6912 11.7721 12 11.7721C11.3112 11.7721 10.75 12.3125 10.75 12.9784Z" fill="url(#paint1_linear_11308_8332)"/>
<path d="M14.46 14.7226C14.2663 15.8673 13.2412 16.7479 12 16.7479C10.7613 16.7479 9.7375 15.871 9.54125 14.7286C6.87625 14.6213 4.33625 14.3728 2 13.988V17.9626C2 18.7672 2.33125 19.4958 2.8625 20.0398V20.1086H2.92125C3.49125 20.6586 4.2775 21 5.14625 21H18.8525C20.5888 21 22 19.6381 22 17.9626V13.8854C19.6862 14.3245 17.1413 14.6056 14.46 14.7226Z" fill="url(#paint2_linear_11308_8332)"/>
<path d="M8.64124 6.71892C8.62874 6.63689 8.61499 6.55366 8.61499 6.46801V6.01566C8.61499 5.01808 9.45624 4.20627 10.49 4.20627H13.5112C14.5437 4.20627 15.3862 5.01808 15.3862 6.01566V6.46801C15.3862 6.55366 15.3712 6.63689 15.36 6.71892H16.61C16.6175 6.63568 16.6362 6.55366 16.6362 6.46801V6.01566C16.6362 4.35222 15.235 3 13.5112 3H10.49C8.76749 3 7.36499 4.35222 7.36499 6.01566V6.46801C7.36499 6.55366 7.38374 6.63568 7.39124 6.71892H8.64124Z" fill="url(#paint3_linear_11308_8332)"/>
<defs>
<linearGradient id="paint0_linear_11308_8332" x1="12" y1="3" x2="12" y2="21" gradientUnits="userSpaceOnUse">
<stop stop-color="#787878"/>
<stop offset="0.950107" stop-color="#1F1F1F"/>
</linearGradient>
<linearGradient id="paint1_linear_11308_8332" x1="12" y1="3" x2="12" y2="21" gradientUnits="userSpaceOnUse">
<stop stop-color="#787878"/>
<stop offset="0.950107" stop-color="#1F1F1F"/>
</linearGradient>
<linearGradient id="paint2_linear_11308_8332" x1="12" y1="3" x2="12" y2="21" gradientUnits="userSpaceOnUse">
<stop stop-color="#787878"/>
<stop offset="0.950107" stop-color="#1F1F1F"/>
</linearGradient>
<linearGradient id="paint3_linear_11308_8332" x1="12" y1="3" x2="12" y2="21" gradientUnits="userSpaceOnUse">
<stop stop-color="#787878"/>
<stop offset="0.950107" stop-color="#1F1F1F"/>
</linearGradient>
</defs>
</svg>
