<svg width="24" height="24" viewBox="0 0 24 24" fill="none" xmlns="http://www.w3.org/2000/svg">
<path d="M12.0494 5.43293L17.0553 6.14778C17.495 6.21073 17.841 6.55662 17.9039 6.99641L18.6187 12.0023C18.6632 12.3138 18.5581 12.6284 18.3355 12.8509L9.62851 21.5579C9.23803 21.9484 8.60499 21.9483 8.21445 21.5579L2.49375 15.8372C2.10337 15.4467 2.10327 14.8136 2.49375 14.4232L11.2008 5.71614C11.4233 5.49362 11.7379 5.3885 12.0494 5.43293ZM15.3473 8.70442C14.7615 8.11874 13.812 8.11883 13.2262 8.70442C12.6404 9.2902 12.6404 10.2397 13.2262 10.8255C13.812 11.4113 14.7615 11.4113 15.3473 10.8255C15.9328 10.2397 15.933 9.29016 15.3473 8.70442Z" fill="url(#paint0_linear_11308_8380)"/>
<defs>
<linearGradient id="paint0_linear_11308_8380" x1="11.9999" y1="2.14893" x2="11.9999" y2="21.8508" gradientUnits="userSpaceOnUse">
<stop stop-color="#787878"/>
<stop offset="0.950107" stop-color="#1F1F1F"/>
</linearGradient>
</defs>
</svg>
