<svg width="24" height="24" viewBox="0 0 24 24" fill="none" xmlns="http://www.w3.org/2000/svg">
<line x1="4.75" y1="2.25" x2="19.25" y2="2.25" stroke="white" stroke-width="1.5" stroke-linecap="round"/>
<path d="M11.25 21C11.25 21.4142 11.5858 21.75 12 21.75C12.4142 21.75 12.75 21.4142 12.75 21L12 21L11.25 21ZM12.5303 6.46967C12.2374 6.17678 11.7626 6.17678 11.4697 6.46967L6.6967 11.2426C6.40381 11.5355 6.40381 12.0104 6.6967 12.3033C6.98959 12.5962 7.46447 12.5962 7.75736 12.3033L12 8.06066L16.2426 12.3033C16.5355 12.5962 17.0104 12.5962 17.3033 12.3033C17.5962 12.0104 17.5962 11.5355 17.3033 11.2426L12.5303 6.46967ZM12 21L12.75 21L12.75 7L12 7L11.25 7L11.25 21L12 21Z" fill="white"/>
</svg>
